<?xml version="1.0" encoding="UTF-8" standalone="no"?>
<svg
   xmlns:dc="http://purl.org/dc/elements/1.1/"
   xmlns:cc="http://creativecommons.org/ns#"
   xmlns:rdf="http://www.w3.org/1999/02/22-rdf-syntax-ns#"
   xmlns:svg="http://www.w3.org/2000/svg"
   xmlns="http://www.w3.org/2000/svg"
   version="1.1"
   id="svg2"
   viewBox="0 0 744.09448819 1052.3622047"
   height="297mm"
   width="210mm">
  <defs
     id="defs4" />
  <metadata
     id="metadata7">
    <rdf:RDF>
      <cc:Work
         rdf:about="">
        <dc:format>image/svg+xml</dc:format>
        <dc:type
           rdf:resource="http://purl.org/dc/dcmitype/StillImage" />
        <dc:title></dc:title>
      </cc:Work>
    </rdf:RDF>
  </metadata>
  <g
     id="layer1">
    <path
       id="path3348"
       d="M 514.45898 219.96484 C 505.50651 220.05586 502.67541 223.6022 501.22656 234.0625 C 501.14706 243.02172 501.31109 258.89824 497.40039 256.86328 C 494.5494 262.68735 491.74742 261.25228 489.53711 257.3125 C 489.2664 257.2728 488.98655 257.19544 488.73828 257.03125 C 487.91013 256.48356 488.1559 255.17331 488.14648 254.32422 C 487.45457 252.58055 486.85057 250.65839 486.37109 248.76172 C 486.26426 248.76353 486.1577 248.77673 486.05078 248.77539 C 485.97578 248.77445 486.05078 248.62574 486.05078 248.55078 L 486.05078 247.53711 C 486.02062 247.45445 485.99131 247.38303 485.96289 247.30859 C 485.79469 247.0769 485.60364 246.81454 485.52734 246.70508 C 485.01624 245.97175 485.22915 245.7774 485.71875 245.79297 C 485.39674 244.11506 485.178 242.55641 485.10938 241.33203 C 483.76576 235.73774 489.15725 223.42649 479.33984 226.32031 C 458.3702 226.34431 437.39809 226.27247 416.42969 226.35547 C 408.58604 234.62133 419.60021 266.69113 399.54883 259.81641 C 399.32601 247.80861 399.51317 235.78978 399.45117 223.77734 L 326.51562 223.77734 C 321.59584 234.48261 335.00399 253.15179 334.43359 250.49023 C 335.52558 249.12684 342.16783 264.41612 336.01953 258.22266 C 328.6207 272.55918 331.90896 249.73695 320.03711 250.98438 C 314.0493 243.34014 325.40286 220.9768 311.0957 223.77734 L 264.75781 223.77734 C 268.44991 233.65426 256.10532 245.35557 251.50195 232.7207 C 245.04491 237.03177 238.67505 233.79358 244.67969 240.13477 C 236.51607 245.65736 264.77422 249.75984 250.16211 259.82812 C 249.59208 262.61881 243.82712 260.87569 242.03516 258.18164 C 243.08118 259.24679 241.87977 257.27026 241.87891 257.93359 C 241.47497 257.21266 241.34932 256.43687 241.69922 255.66406 C 240.75791 250.22736 228.06006 249.2523 228.83789 239.89648 C 224.65211 236.59957 211.70795 246.13098 208.08008 234.10156 C 201.62697 228.33985 210.4085 229.27071 207.35938 220.38477 L 198.45312 220.38477 C 199.00501 233.60771 197.3302 247.35576 199.30078 260.24414 C 198.52181 322.34072 198.28035 317.74861 198.45508 323.81445 C 198.48538 341.33992 199.99764 348.65806 198.87695 366.25586 L 199.30078 466.75586 C 200.79033 478.96327 197.9062 497.43038 199.30078 502.76172 C 199.29995 538.25213 198.87795 568.2329 198.87695 603.7207 C 196.93339 616.03724 198.87695 645.2793 198.87695 645.2793 C 202.55521 653.74154 206.43417 666.31066 214.14453 666.05664 C 222.67744 666.34898 221.83246 668.54815 251.03516 666.48047 C 258.22975 667.84563 261.15084 666.75761 268.8457 666.9043 C 281.80544 667.82295 290.21651 667.04506 302.30664 667.75391 L 346.44531 667.75391 C 358.41395 667.1092 369.65375 667.11678 379.09766 667.75195 C 388.9542 669.30758 393.29305 666.94641 405.38867 667.75391 C 415.67069 668.9392 425.54687 666.82225 435.65234 666.9043 L 519.45508 668.60156 C 535.01564 668.47146 554.56846 673.02602 559.7793 659.75 C 559.7793 659.75 566.70322 646.86812 564.83008 638.10742 C 564.16916 614.79653 563.45619 591.30827 564.4043 567.25391 C 564.57894 547.54922 564.94837 532.08699 564.40625 515.44336 C 566.16441 485.6507 564.84262 457.24618 565.25391 427.31836 C 566.44739 410.3701 566.49352 390.65586 564.82812 374.6582 C 565.79463 357.4855 565.15156 339.66078 565.67773 323.85156 C 563.88399 306.73588 567.75951 295.105 566.52539 278.05469 C 565.55769 261.15203 566.9701 240.16124 564.83008 220.8418 C 549.99988 219.80832 550.02273 223.19096 530.90625 221.65625 C 523.86289 220.59532 518.52829 219.92347 514.45898 219.96484 z M 412.48242 230.89648 L 412.48047 230.89844 L 412.48242 230.89648 z M 242.03125 255.58398 C 241.8467 255.59448 242.02825 255.63718 242.03125 255.58398 z M 241.92969 255.61719 L 241.9043 255.68359 L 241.92969 255.61719 z M 242.50977 255.97266 C 242.44747 256.08482 242.76131 256.42965 242.50977 255.97266 z M 408.80664 257.92383 C 408.19138 258.74613 409.05933 258.19397 408.80664 257.92383 z M 244.01953 259.25195 C 243.99773 259.33685 244.15149 259.24115 244.01953 259.25195 z M 244.55078 260.00977 C 244.54684 260.01267 244.55813 260.0301 244.60156 260.07227 C 244.71759 260.12027 244.56261 260.00105 244.55078 260.00977 z M 244.63867 260.08984 C 244.64267 260.17334 244.8919 260.12784 244.63867 260.08984 z "
       style="fill:none;fill-rule:evenodd;stroke:#000000;stroke-width:1px;stroke-linecap:butt;stroke-linejoin:miter;stroke-opacity:1" />
    <path
       id="path4168"
       d="M 314.21875 251.76367 A 8.0568724 9.32901 0 0 0 306.16211 261.0918 A 8.0568724 9.32901 0 0 0 314.21875 270.42188 A 8.0568724 9.32901 0 0 0 322.27539 261.0918 A 8.0568724 9.32901 0 0 0 314.21875 251.76367 z "
       style="fill:#ff0000;fill-opacity:0" />
    <ellipse
       ry="10.601148"
       rx="9.7530565"
       cy="265.75702"
       cx="388.00201"
       id="path4170"
       style="fill:#ff0000;fill-opacity:0" />
    <path
       id="path4172"
       d="M 311.25 247.52344 A 16.113745 11.44924 0 0 0 295.13672 258.97266 A 16.113745 11.44924 0 0 0 311.25 270.42188 A 16.113745 11.44924 0 0 0 327.36328 258.97266 A 16.113745 11.44924 0 0 0 325.99609 254.39258 C 325.64572 254.27512 325.28765 254.15128 324.95898 254.02344 C 320.08189 253.13162 318.91286 251.56443 318.9043 248.90039 A 16.113745 11.44924 0 0 0 311.25 247.52344 z "
       style="fill:#ff0000;fill-opacity:0" />
    <path
       id="path4435"
       d="m 212.02296,300.10474 c 7.35013,0 14.70026,0 22.05039,0"
       style="fill:none;fill-rule:evenodd;stroke:#000000;stroke-width:1px;stroke-linecap:butt;stroke-linejoin:miter;stroke-opacity:1" />
    <path
       id="path4437"
       d="m 210.32678,296.71238 c -0.58781,5.4734 0.18675,6.49691 1.69618,11.02519 0.2827,0.84809 0.72167,1.65929 0.84809,2.54428 0.15992,1.11942 0,2.26157 0,3.39236 0,1.97888 0,3.95777 0,5.93665 0,0.84809 0,1.69618 0,2.54427 0,0.5654 -0.17879,1.15981 0,1.69619 0.1999,0.59969 0.69478,1.08292 0.84809,1.69618 0.27426,1.09703 -0.27425,2.29534 0,3.39237 0.15332,0.61325 0.6482,1.09649 0.8481,1.69618 0.17879,0.53638 0,1.13079 0,1.69618 0,0.8481 0,1.69619 0,2.54428 0,1.69618 0,3.39237 0,5.08855 0,1.69618 0,3.39237 0,5.08855 0,0.5654 0,1.13079 0,1.69619 0,0.28269 0.12642,0.59523 0,0.84809 -0.1788,0.35758 -0.6693,0.4905 -0.8481,0.84809 -0.12642,0.25285 0.12643,0.59524 0,0.84809 -0.17879,0.35759 -0.6693,0.49051 -0.84809,0.84809 -0.25285,0.50571 0.3998,1.29639 0,1.69619 -1.75473,1.75473 0.0686,-2.68147 -1.69618,0.84809 -0.3998,0.79959 -0.63128,1.677 -0.84809,2.54427 -0.0686,0.27426 0.19989,0.6482 0,0.8481 -0.1999,0.19989 -0.5654,0 -0.8481,0 0,0.28269 0.12643,0.59524 0,0.84809 -0.17879,0.35758 -1.13079,0.56539 -0.84809,0.84809 0.3998,0.39979 1.13079,0 1.69619,0 0.56539,0 1.13079,0 1.69618,0 4.52316,0 9.04631,0 13.56947,0 5.65394,0 11.30789,0 16.96184,0 1.13078,0 2.26157,0 3.39236,0 0.2827,0 0.5654,0 0.84809,0 0.2827,0 0.8481,-0.2827 0.8481,0 0,0.2827 -0.59524,0.12643 -0.8481,0 -0.71517,-0.35759 -0.981,-1.3386 -1.69618,-1.69618 -0.25285,-0.12643 -0.59524,0.12642 -0.84809,0 -0.35759,-0.1788 -0.5654,-0.5654 -0.84809,-0.8481 -0.2827,-0.28269 -0.6693,-0.4905 -0.84809,-0.84809 -0.12643,-0.25285 0.12642,-0.59524 0,-0.84809 -0.33983,-0.67965 -1.35636,-1.01654 -1.69619,-1.69618 -0.12642,-0.25286 0.12643,-0.59524 0,-0.8481 -0.17879,-0.35758 -0.6693,-0.4905 -0.84809,-0.84809 -0.12643,-0.25285 0.12643,-0.59524 0,-0.84809 -0.17879,-0.35759 -0.6693,-0.4905 -0.84809,-0.84809 -0.1811,-0.36221 0,-3.9052 0,-4.24046 0,-0.38194 0.12905,-2.28617 0,-2.54428 -0.1788,-0.35758 -0.6693,-0.4905 -0.84809,-0.84809 -0.27547,-0.55094 0.26898,-3.7025 0,-4.24046 -0.1788,-0.35758 -0.72167,-0.46881 -0.8481,-0.84809 -0.26819,-0.80457 0.26819,-1.7397 0,-2.54427 -0.19989,-0.5997 -0.64819,-1.0965 -0.84809,-1.69619 -0.17247,-0.51741 0,-4.43354 0,-5.08855 0,-1.43161 -0.5575,-2.4553 0.84809,-3.39237 0.52597,-0.35064 1.2492,-0.4011 1.69619,-0.84809 0.1999,-0.1999 -0.1999,-0.64819 0,-0.84809 0.1999,-0.1999 0.59524,0.12643 0.84809,0 3.88138,-1.94069 -3.59881,0.35151 2.54428,-1.69618 0.45899,-0.153 3.10344,0 3.39236,0 0.5654,0 1.13079,0 1.69619,0 0.28269,0 0.64819,-0.1999 0.84809,0 0.1999,0.19989 -0.1999,0.64819 0,0.84809 0.1999,0.1999 0.56539,0 0.84809,0 0.2827,0.56539 0.6482,1.09649 0.84809,1.69618 0.1788,0.53638 -0.25285,1.19048 0,1.69619 0.1788,0.35758 0.6693,0.4905 0.84809,0.84809 0.12643,0.25285 -0.0894,0.5799 0,0.84809 0.1999,0.59969 0.6482,1.09649 0.8481,1.69618 0.0894,0.26819 -0.12643,0.59524 0,0.84809 0.17879,0.35759 0.72166,0.46882 0.84809,0.8481 0.17879,0.53638 -0.25285,1.19048 0,1.69618 0.12642,0.25285 0.64819,-0.1999 0.84809,0 0.0341,0.0341 0,3.08092 0,3.39237 0,6.21355 0,15.00703 0,18.65802 0,0.2827 0,0.56539 0,0.84809 0,0.2827 0.12643,0.59524 0,0.84809 -0.17879,0.35759 -0.6693,0.49051 -0.84809,0.84809 -0.12643,0.25286 0.19989,0.6482 0,0.8481 -0.1999,0.19989 -0.6482,-0.1999 -0.84809,0 -0.1999,0.19989 0,0.56539 0,0.84809 0,0.56539 -0.3998,1.29639 0,1.69618 0.39979,0.3998 1.13079,0 1.69618,0 3.67506,0 7.35013,0 11.02519,0 3.10967,0 6.21934,0 9.32901,0 0.2827,0 0.5654,0 0.8481,0 0.28269,0 0.64819,0.1999 0.84809,0 0.19989,-0.1999 -0.1999,-0.64819 0,-0.84809 0.39979,-0.3998 1.29639,0.39979 1.69618,0 0.1999,-0.1999 0,-0.5654 0,-0.84809 0,-0.2827 0,-0.5654 0,-0.84809 0,-1.13079 0.22177,-2.28354 0,-3.39237 -0.17532,-0.87661 -0.63127,-1.677 -0.84809,-2.54428 -0.0686,-0.27425 0,-0.56539 0,-0.84809 -0.2827,-0.56539 -0.6482,-1.09649 -0.84809,-1.69618 -0.1788,-0.53638 0.17879,-1.15981 0,-1.69619 -1.75473,-5.26419 0.0686,2.81865 -1.69619,-4.24046 -0.0686,-0.27425 0.12643,-0.59524 0,-0.84809 -2.81276,-2.81276 0.3998,0.79959 -0.84809,-1.69618 -0.17879,-0.35759 -0.72166,-0.46881 -0.84809,-0.84809 -0.17879,-0.53638 0.17879,-1.15981 0,-1.69619 -0.12643,-0.37928 -0.6693,-0.4905 -0.84809,-0.84809 -0.12643,-0.25285 0,-0.56539 0,-0.84809 0,-0.5654 0.11088,-1.14177 0,-1.69618 -0.17532,-0.87661 -0.67277,-1.66767 -0.84809,-2.54428 -0.16846,-0.8423 0,-4.12426 0,-5.08855 0,-0.58988 -0.15335,-3.93376 0,-4.24046 0.17879,-0.35759 0.66929,-0.4905 0.84809,-0.84809 0.12642,-0.25285 -0.12643,-0.59524 0,-0.84809 0.17879,-0.35759 0.6693,-0.49051 0.84809,-0.8481 0.12643,-0.25285 -0.1999,-0.64819 0,-0.84809 0.1999,-0.19989 0.59524,0.12643 0.84809,0 0.35759,-0.17879 0.51544,-0.62632 0.84809,-0.84809 0.52597,-0.35064 1.13079,-0.56539 1.69619,-0.84809 0.56539,-0.2827 1.17022,-0.49745 1.69618,-0.84809 0.6653,-0.44353 0.98101,-1.3386 1.69618,-1.69619 0.25286,-0.12642 0.5654,0 0.8481,0 0.28269,0 0.56539,0 0.84809,0 0.47337,0 3.85223,-0.12941 4.24046,0 0.37928,0.12643 0.56539,0.5654 0.84809,0.8481 0.97035,0.97034 1.18274,1.00394 1.69618,2.54427 0.0894,0.26819 -0.0894,0.5799 0,0.84809 0.1999,0.59969 0.6482,1.09649 0.8481,1.69619 0.0894,0.26819 -0.0894,0.5799 0,0.84809 0.19989,0.59969 0.61332,1.10926 0.84809,1.69618 0.33201,0.83003 0.44829,1.74469 0.84809,2.54428 0.17879,0.35758 0.75113,0.46023 0.84809,0.84809 0.20569,0.82277 -0.16632,1.71265 0,2.54427 0.12397,0.61986 0.69478,1.08293 0.84809,1.69619 0.13713,0.54851 0,1.13079 0,1.69618 0,0.5654 0,1.13079 0,1.69619 0,1.69618 0,3.39236 0,5.08855 0,1.69618 0,3.39236 0,5.08855 0,0.56539 0.1788,1.1598 0,1.69618 -0.12642,0.37928 -0.6693,0.49051 -0.84809,0.84809 -0.58491,1.16982 1.02709,0.7586 -0.84809,1.69619 -0.25285,0.12642 -0.6482,-0.1999 -0.84809,0 -0.3998,0.39979 0.17879,1.1598 0,1.69618 -0.1999,0.59969 -0.6482,1.09649 -0.84809,1.69618 -0.0894,0.26819 0.12642,0.59524 0,0.8481 -0.35759,0.71517 -1.3386,0.98101 -1.69619,1.69618 -0.26652,0.53304 0.26652,2.85932 0,3.39237 -0.12642,0.25285 -0.64819,-0.1999 -0.84809,0 -0.0848,0.0848 -0.0848,2.45946 0,2.54427 0.1999,0.1999 0.56539,0 0.84809,0 0.84809,0 1.69619,0 2.54428,0 2.82697,0 5.65394,0 8.48092,0 1.41348,0 2.82697,0 4.24045,0 0.2827,0 0.57991,0.0894 0.8481,0 0.59969,-0.19989 1.09649,-0.64819 1.69618,-0.84809 0.26819,-0.0894 0.84809,-0.2827 0.84809,0 0,0.2827 -1.13079,0 -0.84809,0 0.56539,0 1.13079,0 1.69618,0 0.2827,0 0.59524,0.12643 0.8481,0 0.35758,-0.17879 0.46881,-0.72166 0.84809,-0.84809 0.3879,-0.1293 3.01498,0.18869 3.39236,0 0.35759,-0.17879 0.49051,-0.6693 0.8481,-0.84809 0.5858,-0.29291 3.94276,0.29769 4.24046,0 0.23205,-0.23206 -0.23004,-2.93229 0,-3.39237 0.17879,-0.35759 0.66929,-0.4905 0.84809,-0.84809 0.12642,-0.25285 0,-0.5654 0,-0.84809 0,-0.5654 -0.1788,-1.15981 0,-1.69619 0.12642,-0.37928 0.6693,-0.4905 0.84809,-0.84809 0.2502,-0.50039 -0.19445,-1.96093 0,-2.54427 0.1999,-0.5997 0.64819,-1.0965 0.84809,-1.69619 0.23694,-0.71081 -0.28102,-2.83031 0,-3.39237 0.35759,-0.71517 1.3386,-0.98101 1.69618,-1.69618 0.26335,-0.52669 -0.27171,-4.54511 0,-5.08855 0.1788,-0.35759 0.72167,-0.46881 0.8481,-0.84809 0.1654,-0.4962 0,-4.36061 0,-5.08855 0,-3.95777 0,-7.91553 0,-11.87329 0,-2.54427 0,-5.08855 0,-7.63283 0,-0.56539 0,-1.13078 0,-1.69618 0,-0.2827 0.12642,-0.59524 0,-0.84809 -0.35759,-0.71518 -1.3386,-0.98101 -1.69619,-1.69618 -0.12642,-0.25286 0.0894,-0.57991 0,-0.8481 -0.19989,-0.59969 -0.64819,-1.09649 -0.84809,-1.69618 -0.0894,-0.26819 0.12643,-0.59524 0,-0.84809 -0.35759,-0.71518 -1.3386,-0.98101 -1.69618,-1.69619 -0.12643,-0.25285 0.19989,-0.64819 0,-0.84809 -1.75473,-1.75473 0.0686,2.68147 -1.69619,-0.84809 -0.12642,-0.25285 0.15682,-0.61287 0,-0.84809 -0.44353,-0.6653 -1.13079,-1.13079 -1.69618,-1.69619 -0.2827,-0.28269 -0.4905,-0.66929 -0.84809,-0.84809 -0.25285,-0.12642 -0.6482,0.1999 -0.84809,0 -0.1999,-0.19989 0.12642,-0.59524 0,-0.84809 -0.1788,-0.35759 -0.5654,-0.56539 -0.8481,-0.84809 -0.28269,-0.2827 -0.4905,-0.6693 -0.84809,-0.84809 -0.25285,-0.12643 -0.59524,0.12642 -0.84809,0 -1.01771,-0.50886 -1.52656,-2.03542 -2.54427,-2.54428 -0.25286,-0.12642 -0.59524,0.12643 -0.8481,0 -0.35758,-0.17879 -0.46881,-0.72166 -0.84809,-0.84809 -0.76328,-0.25443 -1.78099,0.25443 -2.54427,0 -0.5997,-0.1999 -1.0965,-0.64819 -1.69619,-0.84809 -0.26819,-0.0894 -0.59524,0.12642 -0.84809,0 -0.35759,-0.1788 -0.4905,-0.6693 -0.84809,-0.84809 -0.37738,-0.18869 -3.00446,0.1293 -3.39237,0 -0.37928,-0.12643 -0.46881,-0.72167 -0.84809,-0.8481 -0.48595,-0.16198 -3.44425,0 -4.24046,0 -0.2827,0 -0.5799,0.0894 -0.84809,0 -0.59969,-0.19989 -1.09649,-0.64819 -1.69618,-0.84809 -0.53231,-0.17743 -2.70963,0 -3.39237,0 -2.26158,0 -4.52316,0 -6.78474,0 -1.41348,0 -2.82697,0 -4.24046,0 -0.56539,0 -1.14767,-0.13713 -1.69618,0 -4.09539,1.02385 0.042,0.40303 -2.54428,1.69619 -0.5057,0.25285 -1.22574,-0.31363 -1.69618,0 -0.99795,0.66529 -1.69618,1.69618 -2.54427,2.54427 -0.44649,0.44649 -2.3178,2.09133 -2.54428,2.54428 -0.12643,0.25285 0.1999,0.64819 0,0.84809 -0.1999,0.1999 -0.64819,-0.1999 -0.84809,0 -0.44699,0.44698 -0.40111,1.2492 -0.84809,1.69618 -0.1999,0.1999 -0.5654,0 -0.8481,0 -0.28269,0.2827 -0.62632,0.51545 -0.84809,0.84809 -0.35064,0.52597 -0.49745,1.17022 -0.84809,1.69619 -0.22177,0.33265 -0.6693,0.4905 -0.84809,0.84809 -0.12643,0.25285 0.1999,0.6482 0,0.84809 -0.1999,0.1999 -0.6482,-0.19989 -0.84809,0 -0.1999,0.1999 0.19989,0.6482 0,0.84809 -0.1999,0.1999 -0.6482,-0.19989 -0.84809,0 -0.1999,0.1999 0.12642,0.59524 0,0.8481 -0.1788,0.35758 -0.6693,0.4905 -0.8481,0.84809 -0.12642,0.25285 0.2827,0.84809 0,0.84809 -0.28269,0 0.12643,-0.59524 0,-0.84809 -0.17879,-0.35759 -0.6693,-0.49051 -0.84809,-0.84809 -0.25285,-0.50571 0.3998,-1.29639 0,-1.69619 -0.1999,-0.19989 -0.56539,0 -0.84809,0 0,-0.2827 0.12643,-0.59524 0,-0.84809 -0.35759,-0.71517 -1.3386,-0.98101 -1.69618,-1.69618 -0.25286,-0.50571 0.39979,-1.29639 0,-1.69619 -1.75474,-1.75473 0.0686,2.68147 -1.69619,-0.84809 -0.12642,-0.25285 0.1999,-0.64819 0,-0.84809 -1.75473,-1.75473 0.0686,2.68146 -1.69618,-0.84809 -0.12643,-0.25285 0.1999,-0.6482 0,-0.84809 -0.1999,-0.1999 -0.6482,0.19989 -0.84809,0 -0.2827,-0.5654 -0.5654,-1.13079 -0.8481,-1.69619 -0.28269,0 -0.64819,0.1999 -0.84809,0 -0.19989,-0.1999 0.1999,-0.64819 0,-0.84809 -0.19989,-0.1999 -0.5799,0.0894 -0.84809,0 -0.59969,-0.1999 -1.17022,-0.49745 -1.69618,-0.84809 -0.6653,-0.44353 -0.98101,-1.3386 -1.69619,-1.69619 -0.2581,-0.12905 -2.16233,0 -2.54427,0 -0.55713,0 -3.19294,-0.0997 -3.39237,0 -0.25285,0.12643 0.1999,0.6482 0,0.8481 -0.1999,0.19989 -0.64819,-0.1999 -0.84809,0 -0.1999,0.19989 0.1999,0.64819 0,0.84809 -1.75473,1.75473 0.0686,-2.68146 -1.69618,0.84809 -0.12643,0.25285 0.12642,0.59524 0,0.84809 -0.1788,0.35759 -0.6693,0.49051 -0.8481,0.84809 -0.12642,0.25286 0.12643,0.59524 0,0.8481 -0.35758,0.71517 -1.33859,0.98101 -1.69618,1.69618 -0.12643,0.25285 0.1999,0.64819 0,0.84809 -0.1999,0.1999 -0.64819,-0.1999 -0.84809,0 -0.42405,0.42405 0.42404,2.12023 0,2.54428 -0.1999,0.19989 -0.6482,-0.1999 -0.84809,0 -0.56471,0.5647 0.5647,1.13147 0,1.69618 -0.1999,0.1999 -0.8481,0.2827 -0.8481,0 0,-0.39979 0.5654,-0.56539 0.8481,-0.84809"
       style="fill:none;fill-rule:evenodd;stroke:#000000;stroke-width:1px;stroke-linecap:butt;stroke-linejoin:miter;stroke-opacity:1" />
    <path
       id="path4439"
       d="m 319.73062,302.64902 c 0.15975,-0.63899 0.78328,-4.17564 1.69619,-5.08855 0.44698,-0.44699 1.17022,-0.49745 1.69618,-0.84809 0.33265,-0.22177 0.56539,-0.5654 0.84809,-0.8481 0.5654,-0.56539 1.25265,-1.03088 1.69619,-1.69618 0.15681,-0.23522 -0.1999,-0.64819 0,-0.84809 0.44698,-0.44698 1.17022,-0.49745 1.69618,-0.84809 0.33265,-0.22177 0.56539,-0.5654 0.84809,-0.84809 0.2827,-0.2827 0.6693,-0.49051 0.84809,-0.8481 0.12643,-0.25285 -0.19989,-0.64819 0,-0.84809 0.1999,-0.1999 0.59524,0.12643 0.8481,0 0.71517,-0.35758 0.981,-1.33859 1.69618,-1.69618 0.25285,-0.12643 0.64819,0.1999 0.84809,0 0.1999,-0.1999 -0.1999,-0.6482 0,-0.84809 0.1999,-0.1999 0.59524,0.12642 0.84809,0 0.90888,-0.45444 0.78731,-1.24175 1.69619,-1.69619 0.25285,-0.12642 0.59524,0.12643 0.84809,0 3.52955,-1.76477 -0.90664,0.0585 0.84809,-1.69618 0.20408,-0.20408 3.18829,0.20408 3.39237,0 0.19989,-0.1999 -0.1999,-0.6482 0,-0.84809 0.10388,-0.10389 2.23643,0.077 2.54427,0 0.86728,-0.21682 1.677,-0.63128 2.54428,-0.84809 0.94317,-0.2358 3.42184,0.27287 4.24046,0 0.59969,-0.1999 1.09649,-0.6482 1.69618,-0.8481 0.47849,-0.15949 1.98699,0 2.54428,0 1.97888,0 3.95776,0 5.93664,0 0.20568,0 2.517,-0.0273 2.54427,0 0.1999,0.1999 -0.19989,0.6482 0,0.8481 0.1999,0.19989 0.59524,-0.12643 0.8481,0 3.52955,1.76477 -0.90664,-0.0586 0.84809,1.69618 0.1999,0.1999 0.64819,-0.1999 0.84809,0 0.1999,0.1999 -0.1999,0.64819 0,0.84809 0.1999,0.1999 0.6482,-0.1999 0.84809,0 0.1999,0.1999 -0.12642,0.59524 0,0.84809 0.1788,0.35759 0.6693,0.49051 0.84809,0.84809 0.12643,0.25286 0,0.5654 0,0.8481 0.2827,0.28269 0.6693,0.4905 0.8481,0.84809 0.12642,0.25285 -0.1999,0.64819 0,0.84809 0.19989,0.1999 0.64819,-0.1999 0.84809,0 0.1999,0.1999 -0.12643,0.59524 0,0.84809 0.17879,0.35759 0.72166,0.46882 0.84809,0.84809 0.001,0.004 -8.1e-4,2.54347 0,2.54428 0.1999,0.1999 0.64819,-0.1999 0.84809,0 0.1999,0.1999 -0.12642,0.59524 0,0.84809 0.17879,0.35759 0.6693,0.49051 0.84809,0.84809 0.26653,0.53305 -0.26652,2.85933 0,3.39237 0.12643,0.25285 0.6482,-0.1999 0.8481,0 0.19989,0.1999 0,0.56539 0,0.84809 0,1.97888 0,3.95776 0,5.93665 0,2.82697 0,5.65394 0,8.48091 0,0.5654 0,1.13079 0,1.69619 0,0.28269 0.19989,0.64819 0,0.84809 -0.1999,0.1999 -0.6482,-0.1999 -0.8481,0 -0.19989,0.1999 0.1999,0.64819 0,0.84809 -0.19989,0.1999 -0.59524,-0.12643 -0.84809,0 -1.01771,0.50886 -1.52656,2.03542 -2.54427,2.54428 -0.50571,0.25285 -1.29639,-0.3998 -1.69619,0 -0.19989,0.19989 0.1999,0.64819 0,0.84809 -0.30464,0.30465 -2.84369,-0.27434 -3.39237,0 -0.25285,0.12642 0.1999,0.64819 0,0.84809 -0.19989,0.1999 -0.56539,0 -0.84809,0 -3.10967,0 -6.21934,0 -9.32901,0 -1.97888,0 -3.95776,0 -5.93664,0 -0.2827,0 -0.56539,0 -0.84809,0 -0.2827,0 -0.84809,0.2827 -0.84809,0 0,-0.2827 0.84809,-0.2827 0.84809,0 0,0.39979 -0.6693,0.4905 -0.84809,0.84809 -0.26653,0.53305 0.26652,2.85932 0,3.39237 -0.1788,0.35759 -0.5654,0.56539 -0.8481,0.84809 0,0.5654 0.1788,1.1598 0,1.69618 -0.12642,0.37928 -0.66929,0.49051 -0.84809,0.8481 -0.0579,0.11582 -0.0579,4.97272 0,5.08855 0.35759,0.71517 1.3386,0.98101 1.69619,1.69618 0.12642,0.25285 -0.12643,0.59524 0,0.84809 0.17879,0.35759 0.56539,0.5654 0.84809,0.8481 0.2827,0.28269 0.46881,0.72166 0.84809,0.84809 0.53638,0.17879 1.1598,-0.1788 1.69618,0 0.37928,0.12642 0.5654,0.56539 0.8481,0.84809 0.56539,0.2827 1.08292,0.69478 1.69618,0.84809 0.47776,0.11944 3.19594,-0.13095 3.39237,0 0.52596,0.35064 0.4011,1.2492 0.84809,1.69618 0.1999,0.1999 0.56539,0 0.84809,0 0.60113,0 4.86928,0.10964 5.08855,0 0.83455,-0.41727 2.55782,-2.97509 3.39237,-3.39236 0.25285,-0.12643 0.59524,0.12642 0.84809,0 0.7517,-0.37585 1.77225,-2.02959 2.54428,-2.54428 0.52596,-0.35064 1.2492,-0.40111 1.69618,-0.84809 0.1999,-0.1999 -0.1999,-0.6482 0,-0.84809 0.1999,-0.1999 0.64819,0.19989 0.84809,0 0.1999,-0.1999 -0.1999,-0.6482 0,-0.84809 1.13079,-1.13079 0.84809,1.41348 0.84809,-0.8481 0,-0.28269 -0.19989,-0.64819 0,-0.84809 0.1999,-0.1999 0.59524,0.12643 0.8481,0 0.35758,-0.17879 0.56539,-0.56539 0.84809,-0.84809 0.28269,-0.2827 0.6693,-0.4905 0.84809,-0.84809 0.12642,-0.25285 -0.1999,-0.6482 0,-0.84809 0.1999,-0.1999 0.64819,0.19989 0.84809,0 0.0848,-0.0848 -0.39578,-2.94006 0.84809,-1.69619 0.1999,0.1999 -0.19989,0.6482 0,0.84809 0.1999,0.1999 0.6482,-0.19989 0.84809,0 0.42405,0.42405 -0.42404,2.12023 0,2.54428 0.1999,0.1999 0.6482,-0.1999 0.8481,0 0.19989,0.1999 -0.0894,0.5799 0,0.84809 0.19989,0.59969 0.64819,1.09649 0.84809,1.69619 0.0894,0.26819 -0.12643,0.59524 0,0.84809 1.29315,2.58631 0.67233,-1.55112 1.69618,2.54427 0.13713,0.54852 -0.31362,1.22575 0,1.69619 0.35064,0.52596 1.2492,0.40111 1.69619,0.84809 0.44698,0.44698 0.4011,1.2492 0.84809,1.69618 0.19989,0.1999 0.64819,-0.19989 0.84809,0 0.1999,0.1999 -0.12643,0.59524 0,0.84809 0.35759,0.71518 1.3386,0.98101 1.69618,1.69619 0.12643,0.25285 0,0.56539 0,0.84809 0,0.2827 0,0.56539 0,0.84809 0,0.2827 0.2827,0.84809 0,0.84809 -0.28269,0 0,-1.13079 0,-0.84809 0,0.5654 -0.17879,1.1598 0,1.69619 0.88239,2.64716 0.5654,-0.2827 1.69619,0.84809 0.19989,0.19989 0,0.56539 0,0.84809 0,0.2827 0.15681,0.61287 0,0.84809 -0.44354,0.6653 -1.13079,1.13079 -1.69619,1.69618 -0.28269,0.2827 -0.4905,0.6693 -0.84809,0.8481 -0.25285,0.12642 -0.59524,-0.12643 -0.84809,0 -0.35759,0.17879 -0.5654,0.56539 -0.84809,0.84809 -0.5654,0.56539 -1.03089,1.25265 -1.69619,1.69618 -0.23521,0.15681 -0.64819,-0.1999 -0.84809,0 -1.13079,1.13079 1.79908,0.8138 -0.84809,1.69619 -0.53638,0.17879 -1.1598,-0.1788 -1.69618,0 -0.57429,0.19142 -1.89643,2.22035 -2.54428,2.54427 -0.25785,0.12893 -2.80674,0 -3.39237,0 -1.98892,0 0.3998,-0.1999 -1.69618,0.84809 -0.25285,0.12643 -0.64819,-0.19989 -0.84809,0 -0.1999,0.1999 0.1999,0.6482 0,0.84809 -0.3998,0.3998 -1.15981,-0.17879 -1.69619,0 -0.59969,0.1999 -1.09649,0.6482 -1.69618,0.8481 -0.68263,0.22754 -2.85042,-0.27098 -3.39237,0 -0.35758,0.17879 -0.46881,0.72166 -0.84809,0.84809 -0.46901,0.15633 -4.23448,0 -5.08855,0 -3.39237,0 -6.78473,0 -10.1771,0 -6.21934,0 -12.43868,0 -18.65802,0 -0.20569,0 -2.517,0.0273 -2.54428,0 -0.19989,-0.1999 0.1999,-0.6482 0,-0.84809 -0.17338,-0.17338 -2.20801,0.16813 -2.54427,0 -0.35759,-0.1788 -0.49051,-0.6693 -0.8481,-0.8481 -0.25285,-0.12642 -0.64819,0.1999 -0.84809,0 -0.19989,-0.19989 0.1999,-0.64819 0,-0.84809 -0.19989,-0.19989 -0.59524,0.12643 -0.84809,0 -0.35759,-0.17879 -0.46881,-0.72166 -0.84809,-0.84809 -0.53638,-0.17879 -1.19048,0.25285 -1.69618,0 -0.71518,-0.35759 -1.03089,-1.25265 -1.69619,-1.69618 -0.23522,-0.15681 -0.64819,0.19989 -0.84809,0 -0.1999,-0.1999 0.1999,-0.6482 0,-0.84809 -0.1999,-0.1999 -0.59524,0.12642 -0.84809,0 -0.35759,-0.1788 -0.5654,-0.5654 -0.84809,-0.8481 -0.2827,-0.28269 -0.5654,-0.56539 -0.8481,-0.84809"
       style="fill:none;fill-rule:evenodd;stroke:#000000;stroke-width:1px;stroke-linecap:butt;stroke-linejoin:miter;stroke-opacity:1" />
    <path
       id="path4441"
       d="m 340.93292,300.95284 c 3.2286,0.23887 1.02952,4.60332 1.69618,5.93664 0.12643,0.25285 0.6482,-0.1999 0.84809,0 0.1999,0.1999 0,0.56539 0,0.84809 0,1.03525 -0.32909,1.95568 0.8481,2.54428 0.25285,0.12642 0.56539,0 0.84809,0 0.2827,0 0.56539,0 0.84809,0 1.41349,0 2.82697,0 4.24046,0 0.56539,0 1.69618,-0.5654 1.69618,0 0,0.56539 -2.26158,0 -1.69618,0 0.84809,0 1.69618,0 2.54427,0 0.2827,0 0.8481,-0.2827 0.8481,0 0,0.28269 -0.8481,0.28269 -0.8481,0 0,-0.2827 0.72167,0.25285 0.8481,0 0.25285,-0.50571 -0.5654,-1.69619 0,-1.69619 0.56539,0 0,2.26158 0,1.69619 0,-2.26158 0,-4.52316 0,-6.78474 0,-0.32318 0.0823,-4.15814 0,-4.24046 -0.1999,-0.19989 -0.59524,0.12643 -0.8481,0 -0.71517,-0.35758 -0.98101,-1.33859 -1.69618,-1.69618 -0.25285,-0.12643 -0.59524,0.12642 -0.84809,0 -0.35759,-0.17879 -0.49051,-0.6693 -0.84809,-0.84809 -0.25811,-0.12905 -2.16233,0 -2.54428,0 -0.84809,0 -1.78572,-0.37928 -2.54427,0 -0.25286,0.12642 0.19989,0.64819 0,0.84809 -0.1999,0.1999 -0.5654,0 -0.8481,0 -0.84809,1.13079 -1.69618,2.26158 -2.54427,3.39237 z"
       style="fill:none;fill-rule:evenodd;stroke:#000000;stroke-width:1px;stroke-linecap:butt;stroke-linejoin:miter;stroke-opacity:1" />
    <path
       id="path4443"
       d="m 382.48942,342.50934 c 0,-2.82698 0,-5.65395 0,-8.48092 0,-0.38195 0.12905,-2.28617 0,-2.54428 -0.17879,-0.35758 -0.6693,-0.4905 -0.84809,-0.84809 -0.18869,-0.37738 0.1293,-3.00446 0,-3.39237 -0.12643,-0.37928 -0.6693,-0.4905 -0.84809,-0.84809 -0.12643,-0.25285 0,-0.56539 0,-0.84809 0,-0.2827 0,-0.5654 0,-0.84809 0,-1.69619 0,-3.39237 0,-5.08855 0,-4.80586 0,-9.61171 0,-14.41756 0,-1.97889 0,-3.95777 0,-5.93665 0,-0.2827 0.19989,-0.64819 0,-0.84809 -0.1999,-0.1999 -1.13079,0 -0.8481,0 7.35013,0 14.70026,0 22.05039,0"
       style="fill:none;fill-rule:evenodd;stroke:#000000;stroke-width:1px;stroke-linecap:butt;stroke-linejoin:miter;stroke-opacity:1" />
    <path
       id="path4445"
       d="m 381.64133,352.68644 c 0,1.41348 0,2.82697 0,4.24046 0,0.28269 -0.12643,0.59524 0,0.84809 0.17879,0.35759 0.6693,0.4905 0.84809,0.84809 0.26266,0.52532 -0.25094,3.14143 0,3.39237 0.1999,0.1999 0.56539,0 0.84809,0 1.69618,0 3.39237,0 5.08855,0 6.21934,0 12.43868,0 18.65802,0 1.97888,0 3.95776,0 5.93665,0 0.84809,0 1.78571,0.37928 2.54427,0 0.25285,-0.12643 0,-0.5654 0,-0.84809 0,-0.2827 0,-0.5654 0,-0.8481 0,-0.28269 0,-0.56539 0,-0.84809 0,-0.28269 0.1999,-0.64819 0,-0.84809 -0.1999,-0.1999 -0.64819,0.1999 -0.84809,0 -0.42405,-0.42404 0.42404,-2.12023 0,-2.54427 -0.1999,-0.1999 -0.6482,0.19989 -0.84809,0 -0.1999,-0.1999 0.19989,-0.6482 0,-0.8481 -0.1999,-0.19989 -0.6482,0.1999 -0.84809,0 -0.1999,-0.19989 0.19989,-0.64819 0,-0.84809 -0.1999,-0.1999 -0.6482,0.1999 -0.8481,0 -0.39979,-0.39979 0.3998,-1.29639 0,-1.69618 -0.19989,-0.1999 -0.59524,0.12642 -0.84809,0 -0.22518,-0.11259 -2.43169,-2.3191 -2.54427,-2.54428 -0.25286,-0.5057 0.39979,-1.29639 0,-1.69618 -0.1999,-0.1999 -0.72167,0.25285 -0.8481,0 -0.25285,-0.50571 0.25286,-1.19048 0,-1.69618 -0.12642,-0.25286 -0.64819,0.19989 -0.84809,0 -0.27956,-0.27957 0.20458,-2.77865 0,-3.39237 -0.12642,-0.37928 -0.6693,-0.49051 -0.84809,-0.84809 -0.33924,-0.67848 0.33924,-1.86581 0,-2.54428 -0.17879,-0.35759 -0.6693,-0.4905 -0.84809,-0.84809 -0.12643,-0.25285 0,-0.5654 0,-0.84809 0,-0.2827 0,-0.5654 0,-0.84809 0,-1.69619 0,-3.39237 0,-5.08856 0,-1.97888 0,-3.95776 0,-5.93664 0,-0.38194 -0.12905,-2.28617 0,-2.54427 0.35759,-0.71518 1.3386,-0.98101 1.69618,-1.69619 0.12643,-0.25285 -0.19989,-0.64819 0,-0.84809 0.1999,-0.1999 0.6482,0.1999 0.84809,0 0.1999,-0.1999 -0.19989,-0.64819 0,-0.84809 0.1999,-0.1999 0.61288,0.15681 0.8481,0 0.66529,-0.44353 0.98101,-1.3386 1.69618,-1.69619 0.5057,-0.25285 1.19048,0.25286 1.69618,0 0.25286,-0.12642 -0.19989,-0.64819 0,-0.84809 0.3998,-0.39979 1.29639,0.3998 1.69619,0 0.19989,-0.19989 -0.1999,-0.64819 0,-0.84809 0.39979,-0.39979 1.19048,0.25285 1.69618,0 0.35759,-0.17879 0.49051,-0.6693 0.84809,-0.84809 0.25285,-0.12643 0.5654,0 0.84809,0 0.2827,0 0.5654,0 0.8481,0 1.69618,0 3.39236,0 5.08855,0 1.13079,0 2.26158,0 3.39236,0 0.2827,0 0.5654,0 0.8481,0 0.28269,0 0.59524,-0.12643 0.84809,0 3.52955,1.76478 -0.90664,-0.0585 0.84809,1.69618 0.1999,0.1999 0.64819,-0.19989 0.84809,0 0.56471,0.56471 -0.5647,1.13148 0,1.69619 0.1999,0.19989 0.6482,-0.1999 0.84809,0 0.1999,0.19989 0,0.56539 0,0.84809 0,1.97888 0,3.95776 0,5.93664 0,4.52316 0,9.04631 0,13.56947 0,1.13079 0,2.26158 0,3.39237 0,0.56539 0,1.13079 0,1.69618 0,0.2827 0.12643,0.59524 0,0.84809 -2.81276,2.81277 0.3998,-0.79959 -0.84809,1.69619 -0.17879,0.35758 -0.72166,0.46881 -0.84809,0.84809 0,3.86075 0.39979,0.0485 -0.84809,2.54427 -0.12643,0.25286 0.1999,0.6482 0,0.8481 -0.1999,0.19989 -0.6482,-0.1999 -0.84809,0 -0.3998,0.39979 0.17879,1.1598 0,1.69618 -0.1999,0.59969 -0.49745,1.17022 -0.8481,1.69618 -0.44353,0.6653 -1.33859,0.98101 -1.69618,1.69619 -0.25285,0.5057 0.3998,1.29639 0,1.69618 -0.1999,0.1999 -0.64819,-0.1999 -0.84809,0 -0.1999,0.1999 0.12643,0.59524 0,0.84809 -0.17879,0.35759 -0.6693,0.49051 -0.84809,0.84809 -0.12643,0.25286 0.19989,0.6482 0,0.8481 -0.1999,0.19989 -0.6482,-0.1999 -0.84809,0 -0.1999,0.19989 0.28269,0.84809 0,0.84809 -0.2827,0 0.19989,-1.04799 0,-0.84809 -0.44699,0.44698 -0.8481,1.06405 -0.8481,1.69618 0,0.2827 0.5654,0 0.8481,0 0.28269,0 0.56539,0 0.84809,0 2.26158,0 4.52315,0 6.78473,0 1.69619,0 3.39237,0 5.08855,0 0.2827,0 0.84809,-0.2827 0.84809,0 0,0.2827 -1.13078,0 -0.84809,0 0.84809,0 1.69619,0 2.54428,0 0.2827,0 0.56539,0 0.84809,0 0.2827,0 0.59524,0.12643 0.84809,0 2.09598,-1.04799 -0.29274,-0.84809 1.69619,-0.84809 1.41348,0 2.82697,0 4.24046,0 1.13274,0 0.56344,0 1.69618,0 0.2827,0 0.84809,-0.2827 0.84809,0 0,0.2827 -1.13079,0 -0.84809,0 0.56539,0 1.13079,0 1.69618,0 0.2827,0 0.72167,0.25285 0.84809,0 0.25286,-0.50571 0,-1.13079 0,-1.69619 0,-0.28269 0.1999,-0.64819 0,-0.84809 -0.19989,-0.19989 -0.64819,0.1999 -0.84809,0 -0.19989,-0.19989 0.12643,-0.59524 0,-0.84809 -0.17879,-0.35759 -0.6693,-0.4905 -0.84809,-0.84809 -0.25285,-0.50571 0.39979,-1.29639 0,-1.69618 -0.1999,-0.1999 -0.72167,0.25285 -0.84809,0 -0.25285,-0.50571 0.25285,-1.19048 0,-1.69619 -0.12643,-0.25285 -0.6482,0.1999 -0.84809,0 -0.3998,-0.39979 0.25285,-1.19048 0,-1.69618 -0.1788,-0.35759 -0.6693,-0.49051 -0.84809,-0.84809 -0.12643,-0.25286 0.12642,-0.59524 0,-0.8481 -0.1788,-0.35758 -0.6693,-0.4905 -0.8481,-0.84809 -0.1115,-0.223 0,-2.94888 0,-3.39236 0,-2.82698 0,-5.65395 0,-8.48092 0,-3.67507 0,-7.35013 0,-11.0252 0,-0.60113 -0.10963,-4.86927 0,-5.08855 1.76478,-3.52955 -0.0586,0.90664 1.69619,-0.84809 1.75473,-1.75473 -2.68147,0.0686 0.84809,-1.69618 0.25285,-0.12643 0.59524,0.12642 0.84809,0 0.35759,-0.1788 0.49051,-0.6693 0.84809,-0.8481 0.50571,-0.25285 1.19048,0.25286 1.69619,0 0.35758,-0.17879 0.4905,-0.66929 0.84809,-0.84809 0.21927,-0.10963 4.48742,0 5.08855,0 1.49867,0 5.08065,-0.4359 5.93664,0.84809 0.31363,0.47044 -0.25285,1.19048 0,1.69619 0.11192,0.22384 1.1896,-0.16886 1.69619,0 1.54032,0.51344 1.57393,0.72584 2.54427,1.69618 0.2827,0.2827 0.6693,0.49051 0.84809,0.84809 0.16813,0.33627 -0.17338,2.3709 0,2.54428 0.1999,0.1999 0.6482,-0.1999 0.84809,0 0.1999,0.1999 0,0.56539 0,0.84809 0,0.2827 0,0.5654 0,0.84809 0,2.54428 0,5.08855 0,7.63283 0,3.39237 0,6.78473 0,10.1771 0,0.35676 0.12615,4.83627 0,5.08855 -0.17879,0.35759 -0.72166,0.46882 -0.84809,0.84809 0,3.86076 0.3998,0.0485 -0.84809,2.54428 -0.12642,0.25285 0,0.56539 0,0.84809 0,0.5654 0.17879,1.15981 0,1.69619 -0.25285,0.75855 -1.44333,0.93762 -1.69618,1.69618 -10e-4,0.004 8.1e-4,2.54347 0,2.54427 -0.1999,0.1999 -0.6482,-0.19989 -0.84809,0 -0.3998,0.3998 0.39979,1.29639 0,1.69619 -0.1999,0.1999 -0.6482,-0.1999 -0.8481,0 -0.19989,0.1999 -0.19989,0.64819 0,0.84809 0.1999,0.1999 0.5654,0 0.8481,0 0.28269,0 0.56539,0 0.84809,0 2.26158,0 4.52315,0 6.78473,0 0.5654,0 1.13079,0 1.69619,0 0.28269,0 0.59524,-0.12643 0.84809,0 0.35758,0.17879 0.4905,0.6693 0.84809,0.84809 0.2581,0.12905 2.16233,0 2.54427,0 2.26158,0 4.52316,0 6.78474,0 0.50493,0 4.77039,0.15908 5.08855,0 0.25285,-0.12642 -0.12643,-0.59524 0,-0.84809 0.17879,-0.35759 0.6693,-0.4905 0.84809,-0.84809 0.25285,-0.50571 -0.25285,-1.19048 0,-1.69619 0.1788,-0.35758 0.6693,-0.4905 0.84809,-0.84809 0.23004,-0.46008 -0.23205,-3.16031 0,-3.39236 0.1999,-0.1999 0.6482,0.19989 0.8481,0 0.17338,-0.17339 -0.16813,-2.20802 0,-2.54428 0.35758,-0.71517 1.44333,-0.93763 1.69618,-1.69618 10e-4,-0.004 -8.1e-4,-2.54347 0,-2.54428 0.1999,-0.1999 0.64819,0.1999 0.84809,0 0.1999,-0.1999 0,-0.56539 0,-0.84809 0,-0.2827 0,-0.5654 0,-0.84809 0,-3.95776 0,-7.91553 0,-11.87329 0,-8.48092 0,-16.96184 0,-25.44275 0,-0.32319 0.0823,-4.15815 0,-4.24046 -0.1999,-0.1999 -0.64819,0.19989 -0.84809,0 -0.1999,-0.1999 0.0894,-0.5799 0,-0.84809 -2.04769,-6.14309 0.24451,1.3371 -1.69618,-2.54428 -0.12643,-0.25285 0.0894,-0.5799 0,-0.84809 -0.1999,-0.59969 -0.5654,-1.13079 -0.8481,-1.69619 -0.28269,-0.56539 -0.4011,-1.2492 -0.84809,-1.69618 -0.19989,-0.1999 -0.64819,0.1999 -0.84809,0 -0.1999,-0.1999 0.12643,-0.59524 0,-0.84809 -0.22648,-0.45295 -2.09778,-2.09779 -2.54427,-2.54428 -0.2827,-0.28269 -0.5654,-0.56539 -0.8481,-0.84809 -0.28269,-0.2827 -0.4905,-0.6693 -0.84809,-0.84809 -0.25285,-0.12643 -0.64819,0.1999 -0.84809,0 -0.1999,-0.1999 0.1999,-0.6482 0,-0.84809 -0.1999,-0.1999 -0.56539,0 -0.84809,0 -0.38367,0 -4.86254,0.11301 -5.08855,0 -0.35759,-0.1788 -0.46882,-0.72167 -0.8481,-0.84809 -0.50432,-0.16811 -4.08677,0 -5.08855,0 -0.28269,0 -0.56539,0 -0.84809,0 -0.2827,0 -0.59524,0.12642 -0.84809,0 -0.35759,-0.1788 -0.4905,-0.6693 -0.84809,-0.8481 -0.2581,-0.12905 -2.16233,0 -2.54428,0 -1.97888,0 -3.95776,0 -5.93664,0 -0.69331,0 -5.5068,-0.14328 -5.93664,0 -0.37928,0.12643 -0.49051,0.6693 -0.84809,0.8481 -0.25286,0.12642 -0.59524,-0.12643 -0.8481,0 -0.35758,0.17879 -0.4905,0.66929 -0.84809,0.84809 -0.5057,0.25285 -1.1598,-0.1788 -1.69618,0 -0.59969,0.19989 -1.09649,0.64819 -1.69619,0.84809 -0.26819,0.0894 -0.59524,-0.12643 -0.84809,0 -0.35758,0.17879 -0.4905,0.6693 -0.84809,0.84809 -0.25285,0.12643 -0.59524,-0.12642 -0.84809,0 -0.71518,0.35759 -0.93763,1.44333 -1.69618,1.69618 -0.53639,0.1788 -1.19048,-0.25285 -1.69619,0 -0.25285,0.12643 0.1999,0.6482 0,0.8481 -0.1999,0.19989 -0.64819,-0.1999 -0.84809,0 -0.56471,0.5647 0.56471,1.13147 0,1.69618 -0.1999,0.1999 -0.6482,-0.1999 -0.84809,0 -0.1999,0.1999 0.19989,0.6482 0,0.84809 -0.1999,0.1999 -0.6482,-0.19989 -0.84809,0 -1.75474,1.75473 2.68146,-0.0686 -0.8481,1.69619 -0.25285,0.12642 -0.64819,-0.1999 -0.84809,0 -0.19989,0.19989 0.12643,0.59524 0,0.84809 -0.17879,0.35758 -0.56539,0.56539 -0.84809,0.84809 -0.2827,0.2827 -0.4483,0.84809 -0.84809,0.84809 -0.5654,0 0.39979,-1.29639 0,-1.69618 -0.1999,-0.1999 -0.6482,0.19989 -0.84809,0 -0.1999,-0.1999 0.12642,-0.59524 0,-0.84809 -1.94069,-3.88139 0.35151,3.5988 -1.69619,-2.54428 -0.0894,-0.26819 0,-0.56539 0,-0.84809 -0.28269,-0.2827 -0.6693,-0.49051 -0.84809,-0.84809 -0.12642,-0.25286 0.12643,-0.59524 0,-0.8481 -0.50885,-1.01771 -2.03542,-1.52656 -2.54427,-2.54427 -0.12643,-0.25285 0.12642,-0.59524 0,-0.84809 -0.35759,-0.71518 -1.3386,-0.98101 -1.69619,-1.69619 -0.12642,-0.25285 0.12643,-0.59524 0,-0.84809 -1.76478,-3.52955 0.0586,0.90664 -1.69618,-0.84809 -0.1999,-0.1999 0.1999,-0.64819 0,-0.84809 -0.1999,-0.1999 -0.6482,0.1999 -0.84809,0 -0.1999,-0.1999 0.19989,-0.6482 0,-0.84809 -0.1999,-0.1999 -0.6482,0.19989 -0.8481,0 -0.19989,-0.1999 0.1999,-0.6482 0,-0.8481 -0.39979,-0.39979 -1.19047,0.25286 -1.69618,0 -0.35759,-0.17879 -0.4905,-0.66929 -0.84809,-0.84809 -0.33626,-0.16813 -2.3709,0.17338 -2.54428,0 -0.19989,-0.19989 0.1999,-0.64819 0,-0.84809 -0.23205,-0.23206 -2.93228,0.23004 -3.39236,0 -0.35759,-0.17879 -0.49051,-0.6693 -0.8481,-0.84809 -0.2581,-0.12905 -2.16233,0 -2.54427,0 -2.26158,0 -4.52316,0 -6.78474,0 -0.55713,0 -3.19293,-0.0997 -3.39236,0 -0.25286,0.12643 0.19989,0.64819 0,0.84809 -0.1999,0.1999 -0.59524,-0.12643 -0.84809,0 -2.81277,2.81277 0.79958,-0.39979 -1.69619,0.84809 -0.35759,0.1788 -0.4905,0.6693 -0.84809,0.84809 -0.25285,0.12643 -0.6482,-0.19989 -0.84809,0 -0.1999,0.1999 0.19989,0.6482 0,0.8481 -0.1999,0.19989 -0.61288,-0.15682 -0.84809,0 -0.6653,0.44353 -1.13079,1.13079 -1.69619,1.69618 -0.2827,0.2827 -0.6693,0.49051 -0.84809,0.84809 -0.12643,0.25285 0.1999,0.6482 0,0.84809 -0.1999,0.1999 -0.72167,-0.25285 -0.84809,0 -0.25285,0.50571 0,1.13079 0,1.69619 0,0.28269 0.1999,0.64819 0,0.84809 -0.1999,0.1999 -0.6482,-0.1999 -0.84809,0 -0.1999,0.1999 0.12642,0.59524 0,0.84809 -0.1788,0.35759 -0.6693,0.49051 -0.8481,0.84809 -0.12642,0.25286 0.1999,0.6482 0,0.84809 -0.19989,0.1999 -0.84809,0.2827 -0.84809,0 0,-0.28269 0.5654,0 0.84809,0"
       style="fill:none;fill-rule:evenodd;stroke:#000000;stroke-width:1px;stroke-linecap:butt;stroke-linejoin:miter;stroke-opacity:1" />
    <path
       id="path4447"
       d="m 493.58945,301.80093 c 2.05377,-4.10754 0.80222,-2.4984 3.39237,-5.08855 0.28269,-0.2827 0.62632,-0.51545 0.84809,-0.8481 1.86848,-0.42709 0.4483,-1.74468 0.84809,-2.54427 1.76478,-3.52956 -0.0586,0.90664 1.69618,-0.84809 0.44699,-0.44699 0.40111,-1.2492 0.8481,-1.69619 0.19989,-0.19989 0.64819,0.1999 0.84809,0 0.1999,-0.19989 -0.1999,-0.64819 0,-0.84809 0.1999,-0.1999 0.59524,0.12643 0.84809,0 0.35759,-0.17879 0.49051,-0.6693 0.84809,-0.84809 0.25285,-0.12643 0.5799,0.0894 0.84809,0 0.5997,-0.1999 1.0965,-0.64819 1.69619,-0.84809 0.53638,-0.1788 1.19048,0.25285 1.69618,0 0.35759,-0.1788 0.49051,-0.6693 0.84809,-0.84809 0.25286,-0.12643 0.6482,0.19989 0.84809,0 0.1999,-0.1999 -0.19989,-0.6482 0,-0.8481 0.3998,-0.39979 1.15981,0.1788 1.69619,0 3.39237,-1.13078 -0.17149,-0.81379 4.24046,-1.69618 0.55441,-0.11088 1.1598,0.17879 1.69618,0 0.37928,-0.12643 0.49051,-0.6693 0.84809,-0.84809 0.90486,-0.45243 0.79133,0.45243 1.69619,0 0.71517,-0.35759 0.98101,-1.3386 1.69618,-1.69618 0.52669,-0.26335 4.54511,0.27171 5.08855,0 0.35759,-0.1788 0.49051,-0.6693 0.84809,-0.8481 0.25811,-0.12905 2.16233,0 2.54428,0 1.69618,0 3.39237,0 5.08855,0 0.79876,0 3.75801,-0.16081 4.24046,0 0.37928,0.12643 0.46881,0.72167 0.84809,0.8481 0.53638,0.17879 1.19048,-0.25286 1.69618,0 0.25286,0.12642 -0.19989,0.64819 0,0.84809 0.1999,0.19989 0.59524,-0.12643 0.8481,0 0.35758,0.17879 0.4905,0.6693 0.84809,0.84809 0.25285,0.12643 0.64819,-0.1999 0.84809,0 0.1999,0.1999 -0.12643,0.59524 0,0.84809 0.17879,0.35759 0.6693,0.49051 0.84809,0.84809 0.12643,0.25285 -0.1999,0.6482 0,0.84809 0.1999,0.1999 0.59524,-0.12642 0.84809,0 0.71518,0.35759 0.98101,1.3386 1.69619,1.69619 0.25285,0.12642 0.59524,-0.12643 0.84809,0 3.52955,1.76478 -0.90664,-0.0586 0.84809,1.69618 0.1999,0.1999 0.6482,-0.1999 0.84809,0 0.1999,0.1999 -0.19989,0.6482 0,0.84809 0.1999,0.1999 0.6482,-0.19989 0.84809,0 0.1999,0.1999 -0.19989,0.6482 0,0.8481 0.1999,0.19989 0.57991,-0.0894 0.8481,0 0.59969,0.19989 1.2492,0.4011 1.69618,0.84809 0.1999,0.19989 0,0.56539 0,0.84809 0,0.56539 -0.25285,1.19048 0,1.69618 0.12643,0.25286 0.6482,-0.19989 0.84809,0 0.0273,0.0273 0,2.33859 0,2.54428 0,1.97888 0,3.95776 0,5.93664 0,0.38195 0.12905,2.28617 0,2.54428 -0.17879,0.35758 -0.6693,0.4905 -0.84809,0.84809 -0.33924,0.67847 0.33924,1.8658 0,2.54427 -0.12643,0.25286 -0.64819,-0.19989 -0.84809,0 -0.1999,0.1999 0,0.5654 0,0.8481 0,0.28269 0,0.56539 0,0.84809 0,4.80585 0.56539,0.2827 -0.84809,1.69618 -0.1999,0.1999 0,0.5654 0,0.84809 0,0.2827 0,0.5654 0,0.8481 0,1.41348 0,2.82697 0,4.24045 0,0.5654 0.25285,1.19048 0,1.69619 -0.12643,0.25285 -0.59524,-0.12643 -0.8481,0 -0.35758,0.17879 -0.66929,0.4905 -0.84809,0.84809 -0.12642,0.25285 0.1999,0.64819 0,0.84809 -0.19989,0.1999 -0.64819,-0.1999 -0.84809,0 -0.1999,0.1999 0.1999,0.6482 0,0.84809 -0.1999,0.1999 -0.59524,-0.12642 -0.84809,0 -0.71517,0.35759 -0.98101,1.3386 -1.69618,1.69619 -0.50571,0.25285 -1.29639,-0.3998 -1.69619,0 -0.1999,0.19989 0.1999,0.64819 0,0.84809 -0.25093,0.25093 -2.86705,-0.26266 -3.39237,0 -0.35758,0.17879 -0.4905,0.6693 -0.84809,0.84809 -0.3622,0.1811 -3.90519,0 -4.24046,0 -1.69618,0 -3.39236,0 -5.08855,0 -0.20153,0 -3.20228,-0.095 -3.39236,0 -0.35759,0.17879 -0.49051,0.6693 -0.8481,0.84809 -0.2581,0.12905 -2.16233,0 -2.54427,0 -0.2827,0 -0.5654,0 -0.84809,0 -0.2827,0 -0.8481,0.2827 -0.8481,0 0,-0.28269 1.13079,0 0.8481,0 -0.5654,0 -1.13079,0 -1.69619,0 -0.28269,0 -0.59524,-0.12642 -0.84809,0 -3.52955,1.76478 0.90664,-0.0585 -0.84809,1.69619 -0.1999,0.19989 -0.6482,-0.1999 -0.84809,0 -0.1999,0.19989 0.12642,0.59524 0,0.84809 -0.1788,0.35759 -0.6693,0.4905 -0.84809,0.84809 0,2.26158 0.28269,-0.2827 -0.8481,0.84809 -0.39979,0.3998 0.3998,1.29639 0,1.69619 -0.19989,0.19989 -0.64819,-0.1999 -0.84809,0 -0.1999,0.19989 0.0894,0.5799 0,0.84809 -0.1999,0.59969 -0.40111,1.2492 -0.84809,1.69618 -0.1999,0.1999 -0.6482,-0.1999 -0.84809,0 -0.3998,0.3998 0.39979,1.29639 0,1.69619 -0.1999,0.19989 -0.6482,-0.1999 -0.84809,0 -0.0341,0.0341 0,3.08091 0,3.39236 0,0.20569 -0.0273,2.517 0,2.54428 0.19989,0.1999 0.64819,-0.1999 0.84809,0 0.19989,0.1999 -0.0894,0.5799 0,0.84809 0.19989,0.59969 0.49745,1.17022 0.84809,1.69618 0.23965,0.35948 2.19338,2.36883 2.54428,2.54428 0.25285,0.12642 0.64819,-0.1999 0.84809,0 0.19989,0.1999 -0.1999,0.64819 0,0.84809 0.19989,0.1999 0.59524,-0.12643 0.84809,0 0.35759,0.17879 0.4905,0.6693 0.84809,0.84809 0.25285,0.12643 0.59524,-0.12642 0.84809,0 0.71518,0.35759 0.98101,1.3386 1.69619,1.69619 0.25285,0.12642 0.64819,-0.1999 0.84809,0 0.1999,0.19989 -0.1999,0.64819 0,0.84809 0.39979,0.39979 1.1598,-0.1788 1.69618,0 0.59969,0.1999 1.09649,0.64819 1.69619,0.84809 0.55351,0.18451 4.07456,0 5.08855,0 1.13079,0 2.26157,0 3.39236,0 0.5654,0 1.13079,0 1.69619,0 0.28269,0 0.59524,0.12643 0.84809,0 0.35759,-0.17879 0.4905,-0.6693 0.84809,-0.84809 0.25285,-0.12643 0.59524,0.12642 0.84809,0 1.81998,-0.90999 0.039,-0.92616 0.84809,-2.54428 0.12643,-0.25285 0.6482,0.1999 0.8481,0 0.19989,-0.19989 -0.12643,-0.59524 0,-0.84809 0.17879,-0.35759 0.62632,-0.51544 0.84809,-0.84809 0.2827,-0.5654 0.56539,-1.13079 0.84809,-1.69618 0,-0.2827 -0.12643,-0.59524 0,-0.8481 0.17879,-0.35758 0.6693,-0.4905 0.84809,-0.84809 0.25285,-0.5057 -0.25285,-1.19048 0,-1.69618 0.1788,-0.35759 0.6693,-0.49051 0.84809,-0.84809 0.25286,-0.50571 -0.25285,-1.19048 0,-1.69619 0.1788,-0.35758 0.6693,-0.4905 0.8481,-0.84809 0.12642,-0.25285 -0.1999,-0.64819 0,-0.84809 0.19989,-0.1999 0.64819,0.1999 0.84809,0 0.16507,-0.16507 -0.15484,-3.93078 0,-4.24046 0.12642,-0.25285 0.72166,0.25285 0.84809,0 0.25285,-0.5057 -0.25285,-1.19048 0,-1.69618 0.12643,-0.25286 0.64819,-0.1999 0.84809,0 0.3998,0.39979 -0.25285,1.19048 0,1.69618 0.17879,0.35759 0.6693,0.4905 0.84809,0.84809 0.16813,0.33626 -0.17338,2.3709 0,2.54428 0.1999,0.19989 0.59524,-0.12643 0.84809,0 3.52956,1.76477 -0.90664,-0.0586 0.8481,1.69618 0.19989,0.1999 0.64819,-0.1999 0.84809,0 0.39979,0.39979 -0.3998,1.29639 0,1.69618 0.1999,0.1999 0.64819,-0.19989 0.84809,0 0.1999,0.1999 0,0.5654 0,0.8481 0,0.56539 -0.25285,1.19048 0,1.69618 0.12643,0.25285 0.6482,-0.1999 0.84809,0 0.30465,0.30465 -0.27433,2.84369 0,3.39237 0.12643,0.25285 0.6482,-0.1999 0.84809,0 0.1999,0.19989 -0.12642,0.59524 0,0.84809 0.1788,0.35759 0.6693,0.4905 0.8481,0.84809 0.12642,0.25285 -0.12643,0.59524 0,0.84809 0.17879,0.35759 0.66929,0.49051 0.84809,0.84809 0.12642,0.25286 -0.12643,0.59524 0,0.8481 0.17879,0.35758 0.6693,0.4905 0.84809,0.84809 0.12643,0.25285 -0.1999,0.64819 0,0.84809 0.1999,0.1999 0.64819,-0.1999 0.84809,0 0.1999,0.1999 0.2827,0.84809 0,0.84809 -0.2827,0 0,-1.13079 0,-0.84809 0,0.84809 0,1.69618 0,2.54428 0,0.28269 -0.12642,0.59524 0,0.84809 0.35759,0.71517 1.3386,0.98101 1.69619,1.69618 0.12642,0.25285 0.28269,0.84809 0,0.84809 -0.2827,0 -0.2827,-0.84809 0,-0.84809 0.28269,0 0,0.5654 0,0.84809 0,0.5654 0.25285,1.19048 0,1.69619 -0.25286,0.5057 -1.19048,-0.25286 -1.69619,0 -0.35759,0.17879 -0.51544,0.62632 -0.84809,0.84809 -0.52596,0.35064 -1.17022,0.49745 -1.69618,0.84809 -0.33265,0.22177 -0.49051,0.6693 -0.8481,0.84809 -0.50039,0.2502 -1.96093,-0.19445 -2.54427,0 -0.59969,0.1999 -1.08293,0.69478 -1.69619,0.84809 -0.54851,0.13713 -1.19047,-0.25285 -1.69618,0 -0.25285,0.12643 0.1999,0.6482 0,0.8481 -0.20408,0.20407 -3.18829,-0.20408 -3.39237,0 -0.19989,0.19989 0.1999,0.64819 0,0.84809 -0.39979,0.39979 -1.29639,-0.3998 -1.69618,0 -0.1999,0.19989 0.1999,0.64819 0,0.84809 -0.1999,0.1999 -0.56539,0 -0.84809,0 -0.2827,0 -0.5654,0 -0.84809,0 -0.2827,0 -1.13079,0 -0.8481,0 1.3436,0 3.30284,-0.25285 0,0.84809 -0.26819,0.0894 -0.59524,-0.12642 -0.84809,0 -0.35758,0.17879 -0.4905,0.6693 -0.84809,0.84809 -0.5057,0.25286 -1.29639,-0.39979 -1.69618,0 -0.1999,0.1999 0.19989,0.6482 0,0.84809 -0.1999,0.1999 -0.59524,-0.12642 -0.84809,0 -0.71518,0.35759 -0.98101,1.3386 -1.69619,1.69619 -0.53304,0.26652 -2.85932,-0.26652 -3.39237,0 -0.35758,0.17879 -0.4905,0.6693 -0.84809,0.84809 -0.2581,0.12905 -2.16233,0 -2.54427,0 -1.97888,0 -3.95776,0 -5.93665,0 -2.26157,0 -4.52315,0 -6.78473,0 -0.55729,0 -2.06578,0.1595 -2.54428,0 -0.59969,-0.1999 -1.09649,-0.64819 -1.69618,-0.84809 -0.53638,-0.17879 -1.19048,0.25285 -1.69618,0 -0.35759,-0.17879 -0.49051,-0.6693 -0.8481,-0.84809 -0.67847,-0.33924 -1.8658,0.33923 -2.54427,0 -0.35759,-0.1788 -0.46881,-0.72167 -0.84809,-0.8481 -0.53638,-0.17879 -1.19048,0.25286 -1.69619,0 -0.25285,-0.12642 0.1999,-0.64819 0,-0.84809 -0.39979,-0.39979 -1.19048,0.25286 -1.69618,0 -1.81239,-0.90619 0.11621,-0.78999 -1.69618,-1.69618 -0.50571,-0.25285 -1.29639,0.39979 -1.69619,0 -0.19989,-0.1999 0.1999,-0.6482 0,-0.84809 -0.19989,-0.1999 -0.59524,0.12642 -0.84809,0 -0.35759,-0.1788 -0.4905,-0.6693 -0.84809,-0.84809 -0.79959,-0.3998 -1.677,-0.63128 -2.54428,-0.8481 -0.27425,-0.0686 -0.59524,0.12643 -0.84809,0 -0.71517,-0.35758 -0.98101,-1.33859 -1.69618,-1.69618 -0.25285,-0.12643 -0.6482,0.1999 -0.84809,0 -0.1999,-0.1999 0.19989,-0.64819 0,-0.84809 -0.1999,-0.1999 -0.6482,0.1999 -0.8481,0 -0.19989,-0.1999 0.1999,-0.6482 0,-0.84809 -0.39979,-0.3998 -1.29638,0.39979 -1.69618,0 -1.13079,-1.13079 1.41349,-0.8481 -0.84809,-0.8481"
       style="fill:none;fill-rule:evenodd;stroke:#000000;stroke-width:1px;stroke-linecap:butt;stroke-linejoin:miter;stroke-opacity:1" />
    <path
       id="path4449"
       d="m 520.72839,302.64902 c 0,2.26158 0,4.52316 0,6.78473 0,0.2827 0,0.5654 0,0.8481 0,0.28269 0.2827,0.84809 0,0.84809 -0.2827,0 -0.2827,-0.84809 0,-0.84809 0.63213,0 1.09649,0.64819 1.69618,0.84809 0.47849,0.1595 1.98699,0 2.54428,0 1.97888,0 3.95776,0 5.93664,0 1.13079,0 2.26158,0 3.39237,0 0.2827,0 0.84809,-0.2827 0.84809,0 0,0.2827 -0.84809,0.2827 -0.84809,0 0,-0.3998 0.72166,-0.46882 0.84809,-0.84809 0.17879,-0.53638 0,-1.13079 0,-1.69619 0,-0.28269 -0.2827,-0.84809 0,-0.84809 0.2827,0 0,1.13079 0,0.84809 0,-0.84809 0,-1.69618 0,-2.54427 0,-0.2827 0.12643,-0.59524 0,-0.84809 -0.17879,-0.35759 -0.6693,-0.49051 -0.84809,-0.8481 -0.25285,-0.5057 0.25285,-1.19048 0,-1.69618 -0.1788,-0.35759 -0.6693,-0.49051 -0.84809,-0.84809 -0.12643,-0.25285 0,-0.5654 0,-0.84809 0,-0.5654 0.17879,-1.15981 0,-1.69619 -0.12643,-0.37928 -0.5654,-0.56539 -0.8481,-0.84809 -0.28269,-0.2827 -0.4905,-0.6693 -0.84809,-0.84809 -0.25285,-0.12643 -0.64819,0.1999 -0.84809,0 -0.1999,-0.1999 0.1999,-0.6482 0,-0.84809 -0.1999,-0.1999 -0.64819,0.19989 -0.84809,0 -0.1999,-0.1999 0.1999,-0.6482 0,-0.8481 -1.75473,-1.75473 0.0686,2.68147 -1.69618,-0.84809 -0.12643,-0.25285 0.19989,-0.64819 0,-0.84809 -0.0273,-0.0273 -2.3386,0 -2.54428,0 -0.2827,0 -0.56539,0 -0.84809,0 -0.2827,0 -0.84809,0.2827 -0.84809,0 0,-0.2827 1.13079,0 0.84809,0 -0.84809,0 -1.73971,-0.26819 -2.54428,0 -0.26819,0.0894 0.1999,0.6482 0,0.84809 -0.19989,0.1999 -0.72166,-0.25285 -0.84809,0 -0.25285,0.50571 0.25285,1.19048 0,1.69619 -0.12643,0.25285 -0.64819,-0.1999 -0.84809,0 -0.1999,0.19989 0,0.56539 0,0.84809 0,0.56539 0,1.13079 0,1.69618 0,1.13079 0,2.26158 0,3.39237 z"
       style="fill:none;fill-rule:evenodd;stroke:#000000;stroke-width:1px;stroke-linecap:butt;stroke-linejoin:miter;stroke-opacity:1" />
    <path
       id="path4455"
       d="m 342.6291,597.78498 c 0,0.2827 -0.28269,0.84809 0,0.84809 0.2827,0 0,-0.56539 0,-0.84809 0,-0.2827 0,-0.5654 0,-0.84809 0,-0.38195 0.12905,-2.28617 0,-2.54428 -0.17879,-0.35758 -0.6693,-0.4905 -0.84809,-0.84809 -0.15455,-0.30911 0,-3.75179 0,-4.24046 0,-3.39237 0,-6.78473 0,-10.1771 0,-1.69618 0,-3.39237 0,-5.08855 -1.13079,1.13079 -2.26158,2.26158 -3.39237,3.39237 -0.28269,0 -0.59524,-0.12643 -0.84809,0 -0.35759,0.17879 -0.4905,0.66929 -0.84809,0.84809 -0.25285,0.12642 -0.64819,-0.1999 -0.84809,0 -0.1999,0.19989 0.1999,0.64819 0,0.84809 -0.1999,0.1999 -0.59524,-0.12643 -0.84809,0 -0.71518,0.35759 -0.98101,1.3386 -1.69619,1.69618 -0.25285,0.12643 -0.59524,-0.12642 -0.84809,0 -0.35759,0.1788 -0.4905,0.6693 -0.84809,0.84809 -0.25285,0.12643 -0.6482,-0.19989 -0.84809,0 -0.1999,0.1999 0.19989,0.6482 0,0.8481 -0.3998,0.39979 -1.29639,-0.3998 -1.69619,0 -0.19989,0.19989 0.1999,0.64819 0,0.84809 -0.39979,0.39979 -1.19048,-0.25285 -1.69618,0 -0.35759,0.17879 -0.49051,0.6693 -0.84809,0.84809 -0.25285,0.12643 -0.59524,-0.12643 -0.84809,0 -0.71518,0.35759 -0.98101,1.3386 -1.69619,1.69618 -0.5057,0.25286 -1.29639,-0.39979 -1.69618,0 -0.1999,0.1999 0.1999,0.6482 0,0.8481 -0.1999,0.19989 -0.5654,0 -0.84809,0 0,0.28269 0.19989,0.64819 0,0.84809 -0.3998,0.39979 -1.29639,-0.3998 -1.69619,0 -0.19989,0.19989 0.1999,0.64819 0,0.84809 -0.19989,0.1999 -0.59524,-0.12643 -0.84809,0 -4.54438,2.27219 2.8482,-0.57601 -1.69618,1.69618 -0.50571,0.25285 -1.29639,-0.39979 -1.69619,0 0,2.26158 0.2827,-0.28269 -0.84809,0.84809 -0.1999,0.1999 0.1999,0.6482 0,0.8481 -0.42404,0.42404 -2.12023,-0.42405 -2.54427,0 -0.1999,0.19989 0.12642,0.59524 0,0.84809 -1.76478,3.52955 0.0585,-0.90664 -1.69619,0.84809 -0.19989,0.1999 0.12643,0.59524 0,0.84809 -0.44912,0.89825 -1.24706,0.79794 -1.69618,1.69619 -0.12643,0.25285 0.1999,0.64819 0,0.84809 -0.1999,0.19989 -0.6482,-0.1999 -0.84809,0 -0.1999,0.19989 0.19989,0.64819 0,0.84809 -0.1999,0.1999 -0.59524,-0.12643 -0.84809,0 -3.52956,1.76478 0.90664,-0.0585 -0.8481,1.69618 -0.19989,0.1999 -0.64819,-0.19989 -0.84809,0 -0.1999,0.1999 0,0.5654 0,0.84809 0,0.38195 -0.12905,2.28618 0,2.54428 0.1788,0.35759 0.6693,0.49051 0.84809,0.84809 0.12643,0.25285 -0.19989,0.6482 0,0.84809 0.1999,0.1999 0.6482,-0.19989 0.8481,0 0.19989,0.1999 -0.15682,0.61288 0,0.8481 0.44353,0.66529 1.25265,1.03088 1.69618,1.69618 0.15681,0.23522 -0.1999,0.64819 0,0.84809 1.75473,1.75473 -0.0686,-2.68146 1.69618,0.84809 0.12643,0.25286 -0.19989,0.6482 0,0.8481 0.44699,0.44698 1.0965,0.64819 1.69619,0.84809 0.26819,0.0894 0.64819,-0.1999 0.84809,0 0.1999,0.19989 -0.1999,0.64819 0,0.84809 0.1999,0.1999 0.59524,-0.12643 0.84809,0 0.35759,0.17879 0.51544,0.62632 0.84809,0.84809 0.52597,0.35064 1.17022,0.49745 1.69619,0.84809 0.33264,0.22177 0.4905,0.6693 0.84809,0.84809 0.5057,0.25286 1.19048,-0.25285 1.69618,0 0.35759,0.1788 0.49051,0.6693 0.84809,0.8481 0.25286,0.12642 0.59524,-0.12643 0.84809,0 1.7965,0.89824 -0.1003,0.79793 1.69619,1.69618 0.25285,0.12643 0.59524,-0.12643 0.84809,0 0.35759,0.17879 0.49051,0.6693 0.84809,0.84809 0.25285,0.12643 0.59524,-0.12642 0.84809,0 0.35759,0.1788 0.49051,0.6693 0.8481,0.84809 0.5057,0.25286 1.29639,-0.39979 1.69618,0 0.1999,0.1999 -0.1999,0.6482 0,0.8481 1.13079,1.13078 0.81379,-1.79908 1.69618,0.84809 0.1788,0.53638 -0.25285,1.19048 0,1.69618 0.12643,0.25285 0.6482,-0.1999 0.8481,0 0.19989,0.1999 0,0.5654 0,0.84809 0,0.60113 0.10963,4.86928 0,5.08855 -0.1788,0.35759 -0.5654,0.5654 -0.8481,0.8481 -0.28269,0.28269 -0.4905,0.66929 -0.84809,0.84809 -0.25285,0.12642 -0.59524,-0.12643 -0.84809,0 -0.35759,0.17879 -0.49051,0.6693 -0.84809,0.84809 -0.50571,0.25285 -1.29639,-0.3998 -1.69619,0 -0.19989,0.1999 0.1999,0.64819 0,0.84809 -0.1028,0.10281 -1.34798,-0.087 -1.69618,0 -0.86728,0.21682 -1.66767,0.67277 -2.54428,0.84809 -0.55441,0.11089 -1.1598,-0.17879 -1.69618,0 -0.37928,0.12643 -0.4905,0.6693 -0.84809,0.84809 -0.25285,0.12643 -0.6482,-0.19989 -0.84809,0 -0.1999,0.1999 0.19989,0.6482 0,0.8481 -0.1999,0.19989 -0.5654,0 -0.84809,0 -1.41349,0 -2.82698,0 -4.24046,0 -0.5654,0 -1.15981,-0.1788 -1.69619,0 -0.59969,0.19989 -1.09649,0.64819 -1.69618,0.84809 -0.58335,0.19445 -2.04389,-0.2502 -2.54428,0 -0.35758,0.17879 -0.4905,0.6693 -0.84809,0.84809 -0.25285,0.12643 -0.56539,0 -0.84809,0 -0.2827,0 -0.56539,0 -0.84809,0 -1.13079,0 -2.26158,0 -3.39237,0 -0.68274,0 -2.86006,0.17744 -3.39237,0 -1.80851,-0.60284 -2.01173,-1.16365 -3.39236,-2.54428 -0.2827,-0.28269 -0.72167,-0.46881 -0.8481,-0.84809 -0.17879,-0.53638 0.25286,-1.19048 0,-1.69618 -0.12642,-0.25285 -0.59524,0.12643 -0.84809,0 -0.47123,-0.23562 -1.42272,-1.69618 -1.69618,-1.69618 -0.2827,0 0,0.56539 0,0.84809 0,1.13274 0,0.56344 0,1.69618 0,2.54428 0,5.08855 0,7.63283 0,1.69618 0,3.39236 0,5.08855 0,0.38194 0.12905,2.28617 0,2.54427 -0.17879,0.35759 -0.6693,0.49051 -0.84809,0.8481 -0.12643,0.25285 0,0.56539 0,0.84809 -0.2827,0.2827 -0.6693,0.4905 -0.84809,0.84809 -0.25286,0.5057 0.39979,1.29639 0,1.69618 -0.1999,0.1999 -0.6482,-0.19989 -0.8481,0 -8.1e-4,8.1e-4 0.001,2.54043 0,2.54428 -0.12642,0.37928 -0.84809,0.4483 -0.84809,0.84809 0,0.2827 0.5654,0 0.84809,0 1.13079,0 2.26158,0 3.39237,0 8.11648,0 -1.89639,-0.37928 4.24046,0.84809 0.83162,0.16633 1.72151,-0.20569 2.54428,0 0.38785,0.097 0.4905,0.6693 0.84809,0.84809 0.25285,0.12643 0.59524,-0.12642 0.84809,0 0.35759,0.1788 0.4905,0.6693 0.84809,0.8481 0.25285,0.12642 0.5654,0 0.84809,0 0.5654,0 1.15981,-0.1788 1.69619,0 0.37927,0.12642 0.4905,0.66929 0.84809,0.84809 0.55094,0.27547 3.7025,-0.26898 4.24046,0 0.35758,0.17879 0.4905,0.6693 0.84809,0.84809 0.21927,0.10964 4.48742,0 5.08855,0 3.67506,0 7.35013,0 11.02519,0 2.26158,0 4.52316,0 6.78474,0 0.84809,0 1.7397,0.26819 2.54427,0 0.37928,-0.12643 0.49051,-0.6693 0.8481,-0.84809 0.5057,-0.25285 1.19048,0.25285 1.69618,0 0.35759,-0.1788 0.4905,-0.6693 0.84809,-0.84809 0.25285,-0.12643 0.6482,0.19989 0.84809,0 0.1999,-0.1999 -0.19989,-0.6482 0,-0.8481 0.1999,-0.19989 0.6482,0.1999 0.8481,0 0.19989,-0.19989 -0.1999,-0.64819 0,-0.84809 0.19989,-0.19989 0.5799,0.0894 0.84809,0 0.59969,-0.19989 1.2492,-0.40111 1.69618,-0.84809 0.1999,-0.1999 -0.12643,-0.59524 0,-0.84809 0.50886,-1.01771 2.03542,-1.52657 2.54428,-2.54428 0.12642,-0.25285 -0.15682,-0.61287 0,-0.84809 0.44353,-0.6653 1.21643,-1.05651 1.69618,-1.69618 0.37928,-0.50571 0.40111,-1.2492 0.84809,-1.69619 0.1999,-0.19989 0.6482,0.1999 0.84809,0 0.1999,-0.19989 -0.12642,-0.59524 0,-0.84809 0.35759,-0.71517 1.3386,-0.98101 1.69619,-1.69618 0.12642,-0.25285 -0.0894,-0.5799 0,-0.84809 0.19989,-0.59969 0.64819,-1.0965 0.84809,-1.69619 0.26819,-0.80457 -0.26819,-1.7397 0,-2.54427 0.12643,-0.37928 0.6693,-0.49051 0.84809,-0.84809 0.12893,-0.25785 0,-2.80675 0,-3.39237 0,-2.26158 0,-4.52316 0,-6.78474 0,-1.69618 0,-3.39236 0,-5.08855 0,-0.84809 0.26819,-1.7397 0,-2.54427 -0.0351,-0.10536 -2.39878,-2.47153 -2.54427,-2.54428 -0.25286,-0.12642 -0.6482,0.1999 -0.8481,0 -0.19989,-0.1999 0.1999,-0.64819 0,-0.84809 -0.39979,-0.39979 -1.19048,0.25285 -1.69618,0 -0.35759,-0.17879 -0.4905,-0.6693 -0.84809,-0.84809 -0.25285,-0.12643 -0.59524,0.12642 -0.84809,0 -3.52956,-1.76478 0.90664,0.0585 -0.8481,-1.69619 -0.19989,-0.19989 -0.59524,0.12643 -0.84809,0 -0.35758,-0.17879 -0.56539,-0.56539 -0.84809,-0.84809 -0.2827,-0.28269 -0.6693,-0.4905 -0.84809,-0.84809 -0.12643,-0.25285 0.12643,-0.59524 0,-0.84809 -0.93759,-1.87518 -0.52636,-0.26318 -1.69618,-0.84809 -0.35759,-0.1788 -0.5654,-0.5654 -0.8481,-0.84809 -0.28269,-0.2827 -0.66929,-0.49051 -0.84809,-0.8481 -0.12642,-0.25285 0.1999,-0.64819 0,-0.84809 -0.1999,-0.1999 -0.64819,0.1999 -0.84809,0 -0.1999,-0.1999 0.1999,-0.64819 0,-0.84809 -0.1999,-0.1999 -0.64819,0.1999 -0.84809,0 -0.1999,-0.1999 0.1999,-0.6482 0,-0.84809 -0.1999,-0.1999 -0.72167,0.25285 -0.84809,0 -0.0238,-0.0475 -0.0323,-4.99179 0,-5.08855 0.12642,-0.37928 0.66929,-0.49051 0.84809,-0.8481 0.12642,-0.25285 -0.12643,-0.59523 0,-0.84809 1.76478,-3.52955 -0.0586,0.90664 1.69618,-0.84809 0.1999,-0.1999 -0.1999,-0.64819 0,-0.84809 0.1999,-0.1999 0.59524,0.12643 0.84809,0 0.35759,-0.17879 0.4483,-0.84809 0.8481,-0.84809 1.16559,0 2.26157,0.56539 3.39236,0.84809"
       style="fill:none;fill-rule:evenodd;stroke:#000000;stroke-width:1px;stroke-linecap:butt;stroke-linejoin:miter;stroke-opacity:1" />
    <path
       id="path4461"
       d="m 351.11002,638.49339 c -1.07276,1.5221 0.53638,3.47941 0,5.08855 -0.12642,0.37928 -0.56539,1.13079 -0.84809,0.84809 -0.2827,-0.2827 0.84809,-1.24789 0.84809,-0.84809 0,0.89397 -0.63127,1.677 -0.84809,2.54427 -0.0686,0.27426 0.12643,0.59524 0,0.8481 -0.35759,0.71517 -1.3386,0.98101 -1.69618,1.69618 -0.12615,0.25229 0,4.73179 0,5.08855 0,0.2827 0.19989,0.6482 0,0.84809 -0.1999,0.1999 -0.6482,-0.19989 -0.8481,0 -0.39979,0.3998 0.5654,1.69619 0,1.69619 -0.34813,0 0.90488,-4.41083 -0.84809,0.84809 -0.17879,0.53638 0.3998,1.29639 0,1.69618 -1.13079,1.13079 -0.84809,-1.41348 -0.84809,0.84809 1.13079,-0.56539 2.19298,-1.29639 3.39237,-1.69618 0.53638,-0.17879 1.13079,0 1.69618,0 1.41349,0 2.82697,0 4.24046,0 1.13079,0 2.26158,0 3.39237,0 0.28269,0 1.13079,0 0.84809,0 -5.26901,0 3.46115,0 4.24046,0 1.41349,0 2.82697,0 4.24046,0 0.2827,0 0.56539,0 0.84809,0 0.2827,0 0.59524,0.12643 0.84809,0 0.35759,-0.17879 0.49051,-0.6693 0.84809,-0.84809 0.50571,-0.25285 1.15981,0.17879 1.69619,0 0.59969,-0.1999 1.09649,-0.6482 1.69618,-0.84809 0.26819,-0.0894 0.6482,0.19989 0.84809,0 0.1999,-0.1999 0,-0.5654 0,-0.8481 0,-0.28269 0,-0.56539 0,-0.84809 0,-0.28269 0.12643,-0.59524 0,-0.84809 -0.35758,-0.71517 -1.33859,-0.98101 -1.69618,-1.69618 -0.12643,-0.25286 0.1999,-0.6482 0,-0.84809 -0.1999,-0.1999 -0.6482,0.19989 -0.84809,0 -0.1999,-0.1999 0.12642,-0.59524 0,-0.8481 -0.1788,-0.35758 -0.6693,-0.4905 -0.84809,-0.84809 -0.12643,-0.25285 0.19989,-0.64819 0,-0.84809 -0.1999,-0.1999 -0.6482,0.1999 -0.8481,0 -0.19989,-0.1999 0.1999,-0.6482 0,-0.84809 -0.19989,-0.1999 -0.64819,0.19989 -0.84809,0 -0.39979,-0.3998 0.25285,-1.19048 0,-1.69619 -0.17879,-0.35758 -0.6693,-0.4905 -0.84809,-0.84809 -0.12643,-0.25285 0,-0.56539 0,-0.84809 0,-0.56539 0.17879,-1.1598 0,-1.69618 -0.12643,-0.37928 -0.6693,-0.49051 -0.84809,-0.8481 -0.4531,-0.90619 0.4531,-0.78998 0,-1.69618 -0.1788,-0.35759 -0.6693,-0.4905 -0.84809,-0.84809 -0.12643,-0.25285 0,-0.5654 0,-0.84809 0,-0.5654 0,-1.13079 0,-1.69619 0,-1.41348 0,-2.82697 0,-4.24046 0,-0.28269 0.19989,-0.64819 0,-0.84809 -0.1999,-0.19989 -0.6482,0.1999 -0.8481,0 -0.19989,-0.19989 0,-0.56539 0,-0.84809 0,-0.58988 0.15335,-3.93376 0,-4.24046 -0.17879,-0.35759 -0.66929,-0.4905 -0.84809,-0.84809 -0.27048,-0.54097 0.22674,-4.01372 0,-4.24046 -1.13079,-1.13079 -0.84809,1.41349 -0.84809,-0.84809 0,-0.87737 -0.1999,-1.17219 0.84809,-1.69618 0.55101,-0.27551 4.53755,0.2755 5.08855,0 0.35759,-0.1788 0.49051,-0.6693 0.8481,-0.8481 0.2581,-0.12905 2.16233,0 2.54427,0 0.44349,0 3.16937,-0.1115 3.39237,0 0.35758,0.1788 0.56539,0.5654 0.84809,0.8481 0.2827,0.28269 0.6693,0.4905 0.84809,0.84809 0.12643,0.25285 -0.1999,0.64819 0,0.84809 0.1999,0.1999 0.6482,0.1999 0.84809,0 0.0273,-0.0273 0,-2.33859 0,-2.54428 0,-3.10967 0,-6.21934 0,-9.32901 0,-0.7107 0.18023,-3.88 0,-4.24046 -0.12642,-0.25285 -0.64819,0.1999 -0.84809,0 -0.1999,-0.19989 0,-0.56539 0,-0.84809 0,-0.2827 0,-0.56539 0,-0.84809 0,-1.69618 0,-3.39237 0,-5.08855 0,-0.2827 0,-0.5654 0,-0.84809 0,-0.2827 0.12643,-0.59524 0,-0.84809 -0.17879,-0.35759 -0.6693,-0.49051 -0.84809,-0.8481 -0.26652,-0.53304 0.26652,-2.85932 0,-3.39236 -0.0339,-0.0679 -2.40858,-0.0679 -2.54428,0 -0.35758,0.17879 -0.56539,0.56539 -0.84809,0.84809 -0.4988,0.4988 -3.196,2.99963 -3.39236,3.39237 -0.12643,0.25285 0.19989,0.64819 0,0.84809 -0.1999,0.19989 -0.6482,-0.1999 -0.8481,0 -0.19989,0.19989 0.1999,0.64819 0,0.84809 -0.42404,0.42405 -2.12023,-0.42405 -2.54427,0 -0.1999,0.1999 0,0.56539 0,0.84809 -0.2827,0 -0.59524,-0.12642 -0.84809,0 -0.48458,0.24229 -1.71847,2.522 -2.54428,1.69618 -0.0273,-0.0273 0,-2.33859 0,-2.54427 0,-1.97888 0,-3.95776 0,-5.93664 0,-0.5654 -0.17879,-1.15981 0,-1.69619 0.1999,-0.59969 0.69478,-1.08292 0.84809,-1.69618 0.16678,-0.66712 0,-4.2066 0,-5.08855 0,-3.39237 0,-6.78474 0,-10.1771 0,-0.8481 0,-1.69619 0,-2.54428 0,-0.56539 -0.13713,-1.14767 0,-1.69618 0.15332,-0.61326 0.69478,-1.08293 0.84809,-1.69619 0.14067,-0.56268 0,-4.36903 0,-5.08855 0,-0.56539 -0.13712,-1.14767 0,-1.69618 0.15332,-0.61326 0.69478,-1.08293 0.8481,-1.69619 0.13712,-0.54851 -0.13713,-1.14767 0,-1.69618 0.15331,-0.61326 0.69477,-1.08293 0.84809,-1.69618 0.14855,-0.59421 0,-4.78148 0,-5.08855 0,-0.5654 -0.1788,-1.15981 0,-1.69619 0.39979,-1.19938 1.29639,-2.19298 1.69618,-3.39236 0.26819,-0.80458 -0.16632,-1.71266 0,-2.54428 0.17532,-0.87661 0.5654,-1.69618 0.84809,-2.54428"
       style="fill:none;fill-rule:evenodd;stroke:#000000;stroke-width:1px;stroke-linecap:butt;stroke-linejoin:miter;stroke-opacity:1" />
    <path
       id="path4465"
       d="m 350.26193,620.68346 c 0,-2.26158 0,-4.52316 0,-6.78474 0,-0.28269 -0.2827,-0.84809 0,-0.84809 0.2827,0 0.1999,1.04799 0,0.84809 -0.44698,-0.44698 -0.6482,-1.09649 -0.84809,-1.69618 -0.11001,-0.33001 0.13161,-2.41266 0,-2.54427 -0.1999,-0.1999 -0.5654,0 -0.84809,0 -0.48274,0 -3.30555,-0.0579 -3.39237,0 -0.52597,0.35064 -0.5654,1.13078 -0.84809,1.69618"
       style="fill:none;fill-rule:evenodd;stroke:#000000;stroke-width:1px;stroke-linecap:butt;stroke-linejoin:miter;stroke-opacity:1" />
    <path
       id="path4467"
       d="m 343.47719,591.84834 c 1.13079,0.56539 2.26158,1.13079 3.39237,1.69618 0,0.2827 -0.1999,0.64819 0,0.84809 0.3998,0.3998 1.69619,-0.56539 1.69619,0 0,0.34814 -4.41083,-0.90488 0.84809,0.84809 0.16309,0.0544 2.54427,-0.0435 2.54427,0 0,0.2827 -1.04799,0.1999 -0.84809,0 0.44698,-0.44698 1.2492,-0.4011 1.69618,-0.84809 0.0341,-0.0341 0,-3.08091 0,-3.39237 0,-0.28269 0,-0.56539 0,-0.84809 0,-0.28269 0.12643,-0.59524 0,-0.84809 -0.17879,-0.35759 -0.66929,-0.4905 -0.84809,-0.84809 -0.12642,-0.25285 0,-0.5654 0,-0.84809 0,-0.85408 0.15634,-4.61954 0,-5.08855 -0.12642,-0.37928 -0.6693,-0.49051 -0.84809,-0.8481 -0.25749,-0.51498 0.25749,-4.57357 0,-5.08855 -0.17879,-0.35758 -0.72166,-0.46881 -0.84809,-0.84809 -0.35759,-1.07276 0.35759,-2.31961 0,-3.39237 -0.12643,-0.37927 -0.6693,-0.4905 -0.84809,-0.84809 -0.27098,-0.54195 0.22754,-2.70974 0,-3.39236 -0.1999,-0.5997 -0.6482,-1.0965 -0.84809,-1.69619 -0.0894,-0.26819 0,-0.56539 0,-0.84809 0,-0.60631 0.1447,-4.65442 0,-5.08855 -0.12643,-0.37928 -0.72167,-0.46882 -0.8481,-0.84809 -0.15571,-0.46715 0.0486,-4.79726 0,-5.08855 -0.14696,-0.88181 -0.70112,-1.66248 -0.84809,-2.54428 -0.23237,-1.39425 0,-2.82697 0,-4.24046 0,-2.54427 0,-5.08855 0,-7.63283 0,-0.28269 -0.1999,-0.64819 0,-0.84809 0.1999,-0.19989 0.59524,0.12643 0.84809,0 0.35759,-0.17879 0.49051,-0.6693 0.8481,-0.84809 0.5057,-0.25285 1.19047,0.25285 1.69618,0 0.35759,-0.17879 0.4905,-0.6693 0.84809,-0.84809 0.50039,-0.2502 1.96093,0.19445 2.54428,0 0.59969,-0.1999 1.09649,-0.6482 1.69618,-0.84809 0.47849,-0.1595 1.98699,0 2.54428,0 2.26157,0 4.52315,0 6.78473,0 0.2827,0 0.5654,0 0.84809,0 0.2827,0 0.84809,-0.2827 0.84809,0 0,0.28269 -1.13078,0 -0.84809,0 0.5654,0 1.13079,0 1.69619,0 0.56539,0 1.19048,-0.25286 1.69618,0 0.14005,0.07 0,2.31863 0,2.54427 0,0.2827 0,0.5654 0,0.84809 0,0.2827 0.2827,0.8481 0,0.8481 -0.2827,0 0,-0.5654 0,-0.8481"
       style="fill:none;fill-rule:evenodd;stroke:#000000;stroke-width:1px;stroke-linecap:butt;stroke-linejoin:miter;stroke-opacity:1" />
    <path
       id="path4469"
       d="m 344.32529,609.65827 c -8.41099,2.10274 -2.2417,-0.60517 -3.39237,1.69618 -0.17879,0.35759 -0.5654,0.56539 -0.84809,0.84809"
       style="fill:none;fill-rule:evenodd;stroke:#000000;stroke-width:1px;stroke-linecap:butt;stroke-linejoin:miter;stroke-opacity:1" />
    <path
       id="path4471"
       d="m 380.79324,614.74682 c -1.30272,-2.90345 1.80709,-2.76609 2.54427,-4.24046 0.25285,-0.50571 -0.39979,-1.29639 0,-1.69619 0.1999,-0.19989 0.59524,0.12643 0.84809,0 0.35759,-0.17879 0.49051,-0.6693 0.84809,-0.84809 0.67848,-0.33924 1.86581,0.33924 2.54428,0 0.35759,-0.17879 0.49051,-0.6693 0.84809,-0.84809 0.33626,-0.16813 2.3709,0.17338 2.54428,0 0.19989,-0.1999 -0.1999,-0.6482 0,-0.84809 0.19989,-0.1999 0.56539,0 0.84809,0 0.2827,0 0.56539,0 0.84809,0 2.82697,0 5.65395,0 8.48092,0 1.69618,0 3.39237,0 5.08855,0 0.2827,0 0.5654,0 0.84809,0 0.2827,0 0.59524,-0.12643 0.84809,0 0.35759,0.17879 0.49051,0.6693 0.8481,0.84809 0.25285,0.12643 0.59524,-0.12643 0.84809,0 3.52955,1.76478 -0.90664,-0.0585 0.84809,1.69618 0.1999,0.1999 0.56539,0 0.84809,0 0,0.2827 -0.1999,0.6482 0,0.8481 0.1999,0.19989 0.6482,-0.1999 0.84809,0 0.42405,0.42404 -0.42404,2.12022 0,2.54427 0.1999,0.1999 0.6482,-0.1999 0.8481,0 0.19989,0.1999 -0.12643,0.59524 0,0.84809 0.17879,0.35759 0.66929,0.49051 0.84809,0.84809 0.25342,0.50685 -0.55829,1.69619 0.84809,1.69619 0.2827,0 0,-0.5654 0,-0.84809 0,-0.2827 0,-0.5654 0,-0.8481 0,-1.97888 0,-3.95776 0,-5.93664 0,-4.61885 0,-4.76222 0,-10.1771 0,-0.7107 0.18022,-3.88001 0,-4.24046 -0.12643,-0.25285 -0.6482,0.1999 -0.84809,0 -0.1999,-0.1999 0.19989,-0.64819 0,-0.84809 -0.3998,-0.3998 -1.19048,0.25285 -1.69619,0 -2.09597,-1.04799 0.29275,-0.84809 -1.69618,-0.84809 -1.41349,0 -2.82697,0 -4.24046,0 -0.2827,0 -0.56539,0 -0.84809,0 -0.2827,0 -0.59524,0.12642 -0.84809,0 -0.35759,-0.1788 -0.49051,-0.6693 -0.84809,-0.8481 -0.51499,-0.25749 -4.57358,0.25749 -5.08856,0 -0.89824,-0.44912 -0.79793,-1.24706 -1.69618,-1.69618 -0.0947,-0.0473 -4.1458,-0.0473 -4.24046,0 -0.35759,0.17879 -0.51544,0.62633 -0.84809,0.84809 -0.52596,0.35065 -1.2492,0.40111 -1.69618,0.84809 -0.1999,0.1999 0.19989,0.6482 0,0.8481 -0.1999,0.19989 -0.6482,-0.1999 -0.8481,0 -0.19989,0.19989 0.1999,0.64819 0,0.84809 -0.19989,0.1999 -0.59524,-0.12643 -0.84809,0 -0.35758,0.17879 -0.4905,0.6693 -0.84809,0.84809 -0.25285,0.12643 -0.64819,-0.1999 -0.84809,0 -0.50685,0.50685 0.91668,1.69618 -0.84809,1.69618 -0.0435,0 0.0544,-2.38118 0,-2.54427 -0.1999,-0.59969 -0.6482,-1.09649 -0.8481,-1.69619 -0.25442,-0.76328 0.25443,-1.78099 0,-2.54427 -0.19989,-0.59969 -0.64819,-1.09649 -0.84809,-1.69618 -0.0894,-0.26819 0.12643,-0.59524 0,-0.8481 -1.94069,-3.88138 0.35151,3.59881 -1.69618,-2.54427 -0.17879,-0.53638 0.39979,-1.29639 0,-1.69619 -0.1999,-0.19989 -0.6482,0.1999 -0.84809,0 -0.3998,-0.39979 0.17879,-1.1598 0,-1.69618 -0.1999,-0.59969 -0.40111,-1.2492 -0.84809,-1.69618 -0.1999,-0.1999 -0.6482,0.19989 -0.8481,0 -0.19989,-0.1999 0.1999,-0.6482 0,-0.84809 -0.19989,-0.1999 -0.64819,0.19989 -0.84809,0 -1.21777,-1.21778 1.56571,-0.78286 1.69619,-0.8481 0.35758,-0.17879 0.51544,-0.62632 0.84809,-0.84809 1.52785,-1.01857 3.31565,-1.3416 5.08855,-1.69618 0.27721,-0.0554 0.5799,0.0894 0.84809,0 0.59969,-0.1999 1.09649,-0.6482 1.69618,-0.84809 0.53638,-0.1788 1.19048,0.25285 1.69619,0 0.35758,-0.1788 0.4905,-0.6693 0.84809,-0.8481 0.52573,-0.26286 3.71995,0.26026 4.24046,0 0.25285,-0.12642 -0.1999,-0.64819 0,-0.84809 0.17338,-0.17338 2.20801,0.16813 2.54427,0 0.35759,-0.17879 0.49051,-0.6693 0.8481,-0.84809 0.21927,-0.10964 4.48742,0 5.08855,0 0.28269,0 0.59524,0.12643 0.84809,0 0.35759,-0.17879 0.4905,-0.6693 0.84809,-0.84809 0.19008,-0.095 3.19084,0 3.39237,0 1.97888,0 3.95776,0 5.93664,0 5.08855,0 10.1771,0 15.26565,0 2.10721,0 2.75637,-0.52996 4.24046,1.69618 0.15682,0.23522 -0.19989,0.6482 0,0.84809 1.13079,1.13079 0.84809,-1.41348 0.84809,0.8481 0,0.20568 -0.0273,2.517 0,2.54427 0.1999,0.1999 0.72167,-0.25285 0.8481,0 0.25285,0.50571 0,1.13079 0,1.69619 0,1.69618 0,3.39236 0,5.08855 0,2.54427 0,5.08855 0,7.63282 0,0.5654 0,1.13079 0,1.69619 0,0.56539 0.13713,1.14767 0,1.69618 -0.15332,0.61326 -0.6482,1.09649 -0.8481,1.69618 -0.0894,0.26819 0.0894,0.57991 0,0.8481 -0.19989,0.59969 -0.69477,1.08292 -0.84809,1.69618 -0.13713,0.54851 0.13713,1.14767 0,1.69618 -1.38421,5.53685 -0.4554,-3.20424 -1.69618,4.24046 0,6.46979 0.37928,-0.66902 -0.84809,4.24046 -0.13713,0.54851 0.17879,1.1598 0,1.69619 -0.12643,0.37927 -0.6693,0.4905 -0.84809,0.84809 -0.27049,0.54097 0.22673,4.01372 0,4.24046 -1.75474,1.75473 0.0686,-2.68147 -1.69619,0.84809 -0.24931,0.49863 0.17405,2.69617 0,3.39237 -0.21682,0.86727 -0.63127,1.677 -0.84809,2.54427 -0.1843,0.73718 0,2.55379 0,3.39237 0,2.26158 0,4.52315 0,6.78473 0,0.58988 -0.15335,3.93376 0,4.24046 0.35759,0.71518 1.25265,1.03089 1.69618,1.69619 1.48208,2.22312 0.317,1.48208 1.69619,4.24045 0.17879,0.35759 0.62632,0.51545 0.84809,0.8481 0.35064,0.52596 0.49745,1.17022 0.84809,1.69618 0.22177,0.33265 0.5654,0.5654 0.84809,0.84809 0.2827,0.2827 0.51545,0.62633 0.84809,0.84809 0.52597,0.35065 1.17022,0.49745 1.69619,0.8481 0.33265,0.22176 0.52825,0.60821 0.84809,0.84809 0.81542,0.61157 1.72885,1.08461 2.54428,1.69618 0.63967,0.47975 1.03088,1.25265 1.69618,1.69619 1.05193,0.70128 2.34044,0.99489 3.39237,1.69618 1.68012,-0.0847 0.40111,1.2492 0.84809,1.69618 0.1999,0.1999 0.59524,-0.12642 0.84809,0 0.35759,0.1788 0.49051,0.6693 0.84809,0.84809 0.25285,0.12643 0.84809,-0.28269 0.84809,0 0,0.2827 -0.56539,0 -0.84809,0 -0.28269,0 -0.56539,0 -0.84809,0 -0.47385,0 -3.73998,0.16683 -4.24046,0 -0.59969,-0.19989 -1.09649,-0.64819 -1.69618,-0.84809 -0.58335,-0.19445 -2.04389,0.2502 -2.54428,0 -0.35758,-0.17879 -0.4905,-0.6693 -0.84809,-0.84809 -0.51498,-0.25749 -4.57357,0.25749 -5.08855,0 -0.35759,-0.17879 -0.49051,-0.6693 -0.84809,-0.84809 -0.54344,-0.27172 -4.56186,0.26335 -5.08855,0 -3.63551,-1.81775 1.93932,0.12157 -1.69619,-1.69618 -0.20988,-0.10495 -6.78473,0.0926 -6.78473,0 0,-0.2827 0.84809,-0.2827 0.84809,0 0,0.27346 -1.46057,1.22495 -1.69618,1.69618 -0.25286,0.5057 0.39979,1.29639 0,1.69618 -0.1999,0.1999 -0.6482,-0.19989 -0.8481,0 -0.0848,0.0848 0.39578,2.94005 -0.84809,1.69619 -0.19989,-0.1999 0,-0.5654 0,-0.8481 0,-0.28269 0,-0.56539 0,-0.84809 0,-3.67506 0,-7.35013 0,-11.02519 0,-0.60299 0.35624,-2.54428 -0.84809,-2.54428 -0.2827,0 0.1999,0.6482 0,0.84809 -0.1999,0.1999 -0.64819,-0.19989 -0.84809,0 -0.1999,0.1999 0.12643,0.59524 0,0.8481 -1.76478,3.52955 0.0586,-0.90664 -1.69618,0.84809 -0.1999,0.1999 0.19989,0.64819 0,0.84809 -0.1999,0.1999 -0.59524,-0.12643 -0.8481,0 -0.35758,0.17879 -0.4905,0.6693 -0.84809,0.84809 -0.25285,0.12643 -0.59524,-0.12642 -0.84809,0 -0.35759,0.1788 -0.49051,0.6693 -0.84809,0.84809 -0.25285,0.12643 -0.6482,-0.19989 -0.84809,0 -0.3998,0.3998 0.39979,1.29639 0,1.69619 -0.3998,0.39979 -1.29639,-0.3998 -1.69619,0 -0.19989,0.19989 0.1999,0.64819 0,0.84809 -0.39979,0.39979 -1.19048,-0.25285 -1.69618,0 -0.35759,0.17879 -0.46881,0.72167 -0.84809,0.84809 -0.53638,0.17879 -1.19048,-0.25285 -1.69619,0 -0.25285,0.12643 0.1999,0.6482 0,0.84809 -0.39979,0.3998 -1.29639,-0.39979 -1.69618,0 -0.1999,0.1999 0.1999,0.6482 0,0.8481 -0.1999,0.19989 -0.5654,0 -0.84809,0 -1.13079,0 -2.26158,0 -3.39237,0 -0.56539,0 -1.1598,-0.1788 -1.69618,0 -0.59969,0.19989 -1.0965,0.64819 -1.69619,0.84809 -0.5323,0.17743 -2.70962,0 -3.39236,0 -2.26158,0 -4.52316,0 -6.78474,0 -1.97888,0 -3.95776,0 -5.93664,0 -0.5654,0 -1.14767,0.13713 -1.69619,0 -3.51599,-0.879 -0.1041,-1.69619 -2.54427,-1.69619"
       style="fill:none;fill-rule:evenodd;stroke:#000000;stroke-width:1px;stroke-linecap:butt;stroke-linejoin:miter;stroke-opacity:1" />
    <path
       id="path4473"
       d="m 399.45126,626.6201 c 0.98734,-6.63677 -3.16398,-0.6197 -4.24046,-1.69618 -0.1999,-0.1999 0.19989,-0.6482 0,-0.84809 -0.1999,-0.1999 -0.5654,0 -0.8481,0 -1.41348,0 -2.82697,0 -4.24045,0 -0.2827,0 -0.5654,0 -0.8481,0 -0.28269,0 -0.64819,-0.1999 -0.84809,0 -1.75473,1.75473 2.68147,-0.0686 -0.84809,1.69618 -1.16982,0.58491 -0.75859,-1.02709 -1.69618,0.84809 -0.1115,0.223 0,2.94888 0,3.39237 0,0.7107 -0.18023,3.88001 0,4.24046 0.12642,0.25285 0.64819,-0.1999 0.84809,0 0.1999,0.1999 -0.1999,0.64819 0,0.84809 0.1999,0.1999 0.64819,-0.1999 0.84809,0 0.1999,0.1999 -0.1999,0.64819 0,0.84809 0.17338,0.17338 2.20801,-0.16813 2.54428,0 2.81276,2.81277 -0.79959,-0.39979 1.69618,0.84809 0.35759,0.1788 0.46881,0.72167 0.84809,0.8481 0.50433,0.1681 4.08678,0 5.08855,0 1.00177,0 4.58423,0.1681 5.08855,0 0.37928,-0.12643 0.6693,-0.49051 0.8481,-0.8481 0.113,-0.22601 0,-4.70488 0,-5.08855 0,-0.83345 0.11218,-4.86418 0,-5.08855 -0.12643,-0.25285 -0.6482,0.1999 -0.8481,0 -0.19989,-0.1999 0.2827,-0.84809 0,-0.84809 -1.16559,0 -2.26158,1.13079 -3.39236,0.84809 -1.37129,-0.34282 -2.18032,-1.81704 -3.39237,-2.54427 -0.24241,-0.14545 -0.5654,0 -0.84809,0 -0.5654,0 -1.13079,0 -1.69619,0"
       style="fill:none;fill-rule:evenodd;stroke:#000000;stroke-width:1px;stroke-linecap:butt;stroke-linejoin:miter;stroke-opacity:1" />
    <path
       id="path4497"
       d="m 352.8062,401.87576 c 8.99253,0.3775 18.18652,-0.88721 26.99033,0.89801 31.16697,-0.10176 62.34765,-0.0402 93.51989,-0.0347 5.04928,-0.0299 11.34918,-0.009 16.88066,-0.0152 4.66587,-1.15778 2.94476,8.85307 3.382,12.40545 -0.353,6.72525 0.31652,15.78695 0.008,22.54793 0.23671,5.74678 0.018,30.17354 0.018,30.17354 l -0.84765,17.24486 c 0.5086,6.94748 -0.60723,4.51992 -0.013,11.44726 2.71285,8.72699 -4.89207,5.97845 -10.74427,5.40696 -5.82299,0.37176 -12.35746,2.48157 -17.84529,0.4202 -6.5075,-0.24813 -14.24205,0.0775 -20.72487,0.42864 -30.20806,-7e-5 -69.54818,0.65124 -99.75625,0.65114 0.59503,-6.15267 0.12407,-8.80076 0.51918,-14.96769 -1.45009,-8.45109 -1.05985,-11.32599 -0.51919,-17.45676 -1.3466,-6.19048 0.80122,-30.58506 -0.10809,-38.3335 -0.26313,-6.8711 9.4e-4,-13.76036 -0.0889,-20.63902 0,0 -0.54946,-8.1677 0,-11.87329 z"
       style="fill:none;fill-rule:evenodd;stroke:#000000;stroke-width:1px;stroke-linecap:butt;stroke-linejoin:miter;stroke-opacity:1" />
    <path
       id="path4501"
       d="m 309.55352,426.47043 c 6.97948,0 1.82425,-0.78406 6.78474,1.69618 0.79958,0.3998 1.71424,0.51608 2.54427,0.84809 0.58692,0.23477 1.09649,0.6482 1.69618,0.8481 0.2682,0.0894 0.6482,-0.1999 0.8481,0 0.44698,0.44698 0.49745,1.17021 0.84809,1.69618 0.22176,0.33265 0.56539,0.56539 0.84809,0.84809 0.2827,0.2827 0.49051,0.6693 0.84809,0.84809 0.25285,0.12643 0.6482,-0.19989 0.84809,0 0.44699,0.44699 0.49745,1.17022 0.8481,1.69619 0.22176,0.33265 0.56539,0.56539 0.84809,0.84809 0.2827,0.2827 0.4905,0.6693 0.84809,0.84809 0.5057,0.25285 1.29639,-0.39979 1.69618,0 0.1999,0.1999 -0.19989,0.64819 0,0.84809 0.1999,0.1999 0.6482,-0.1999 0.8481,0 0.19989,0.1999 -0.1999,0.6482 0,0.84809 0.19989,0.1999 0.64819,-0.19989 0.84809,0 0.19989,0.1999 -0.1999,0.6482 0,0.8481 0.19989,0.19989 0.84809,-0.2827 0.84809,0 0,0.28269 -1.04799,-0.1999 -0.84809,0 0.44698,0.44698 1.2492,0.4011 1.69618,0.84809 0.1999,0.19989 -0.1999,0.64819 0,0.84809 0.1999,0.1999 0.6482,-0.1999 0.84809,0 0.1999,0.1999 -0.19989,0.64819 0,0.84809 0.1999,0.1999 0.6482,-0.1999 0.84809,0 0.44699,0.44698 0.40111,1.2492 0.8481,1.69618 0.19989,0.1999 0.5799,-0.0894 0.84809,0 0.59969,0.1999 1.2492,0.40111 1.69618,0.8481 0.1999,0.19989 -0.1999,0.64819 0,0.84809 0.42405,0.42404 2.12023,-0.42405 2.54428,0 0.19989,0.1999 -0.1999,0.64819 0,0.84809 0.39979,0.39979 1.29639,-0.39979 1.69618,0 0.1999,0.1999 -0.1999,0.64819 0,0.84809 0.1999,0.1999 0.6482,-0.1999 0.84809,0 0.1999,0.1999 -0.19989,0.6482 0,0.84809 0.3998,0.3998 1.69619,-0.56539 1.69619,0 0,1.24789 -2.81277,-1.96467 0,0.8481"
       style="fill:none;fill-rule:evenodd;stroke:#000000;stroke-width:1px;stroke-linecap:butt;stroke-linejoin:miter;stroke-opacity:1" />
    <path
       id="path4507"
       d="m 343.47719,461.24219 c -3.40341,0.34838 -5.50527,3.0502 -8.48091,4.24046 -0.83003,0.33201 -1.677,0.63128 -2.54428,0.84809 -0.27426,0.0686 -0.64819,-0.19989 -0.84809,0 -0.44698,0.44699 -0.40111,1.2492 -0.84809,1.69619 -0.1999,0.1999 -0.6482,-0.1999 -0.84809,0 -0.1999,0.1999 0.25285,0.72166 0,0.84809 -0.50571,0.25285 -1.15981,-0.17879 -1.69619,0 -0.37928,0.12643 -0.51544,0.62633 -0.84809,0.84809 -0.52596,0.35064 -1.17022,0.49745 -1.69618,0.84809 -0.33265,0.22177 -0.51545,0.62633 -0.8481,0.8481 -0.52596,0.35064 -1.2492,0.4011 -1.69618,0.84809 -0.1999,0.19989 0.1999,0.64819 0,0.84809 -0.005,0.005 -2.51592,-0.007 -2.54428,0 -4.09538,1.02385 0.042,0.40303 -2.54427,1.69618 -0.25285,0.12643 -0.59524,-0.12642 -0.84809,0 -0.71518,0.35759 -0.93763,1.44333 -1.69619,1.69619 -0.53638,0.17879 -1.1598,-0.1788 -1.69618,0 -0.75856,0.25285 -0.98101,1.33859 -1.69618,1.69618 -0.25286,0.12643 -0.59524,-0.12643 -0.8481,0 -0.35758,0.17879 -0.4905,0.6693 -0.84809,0.84809 -0.25285,0.12643 -0.56539,0 -0.84809,0 -0.2827,0 -0.56539,0 -0.84809,0"
       style="fill:none;fill-rule:evenodd;stroke:#000000;stroke-width:1px;stroke-linecap:butt;stroke-linejoin:miter;stroke-opacity:1" />
    <path
       id="path4509"
       d="m 308.70543,425.62234 c 0,17.80992 0,35.61985 0,53.42978"
       style="fill:none;fill-rule:evenodd;stroke:#000000;stroke-width:1px;stroke-linecap:butt;stroke-linejoin:miter;stroke-opacity:1" />
    <path
       id="path4511"
       d="m 315.49016,428.16661 c 0.2827,1.13079 0.65647,2.24264 0.8481,3.39237 0.18664,1.11988 0,3.7834 0,5.08855 0,3.39237 0,6.78473 0,10.1771 0,10.37794 0,20.6932 0,28.83512"
       style="fill:none;fill-rule:evenodd;stroke:#000000;stroke-width:1px;stroke-linecap:butt;stroke-linejoin:miter;stroke-opacity:1" />
    <path
       id="path4513"
       d="m 208.63059,527.39336 c 0.67991,-3.57462 2.95116,-0.20345 4.24046,-0.8481 0.35759,-0.17879 0.46882,-0.72166 0.84809,-0.84809 0.53638,-0.17879 1.13079,0 1.69619,0 0.28269,0 0.61287,0.15682 0.84809,0 0.0892,-0.0594 3.12278,-3.3025 3.39237,-3.39236 0.61372,-0.20458 3.1128,0.27956 3.39236,0 0.1999,-0.1999 -0.25285,-0.72167 0,-0.8481 1.61812,-0.80906 1.63429,0.97189 2.54428,-0.84809 0.25285,-0.5057 -0.3998,-1.29639 0,-1.69618 0.1999,-0.1999 0.59524,0.12642 0.84809,0 0.35759,-0.1788 0.49051,-0.6693 0.84809,-0.84809 0.50571,-0.25286 1.19048,0.25285 1.69619,0 0.35758,-0.1788 0.51544,-0.62633 0.84809,-0.8481 0.42709,-1.86848 1.74469,-0.44829 2.54427,-0.84809 0.35759,-0.17879 0.49051,-0.6693 0.8481,-0.84809 0.25285,-0.12643 0.59524,0.12643 0.84809,0 0.35758,-0.17879 0.4905,-0.6693 0.84809,-0.84809 0.25285,-0.12643 0.59524,0.12643 0.84809,0 0.35759,-0.17879 0.46881,-0.72167 0.84809,-0.84809 0.53638,-0.1788 1.15981,0.17879 1.69619,0 0.37927,-0.12643 0.4905,-0.6693 0.84809,-0.84809 0.25285,-0.12643 0.5799,0.0894 0.84809,0 0.59969,-0.1999 1.09649,-0.6482 1.69618,-0.8481 0.26819,-0.0894 0.6482,0.1999 0.8481,0 2.05984,-2.05984 -0.2522,-1.24535 1.69618,-2.54427 0.52596,-0.35064 1.17022,-0.49745 1.69618,-0.84809 1.94069,-1.2938 -0.5303,-0.67133 2.54428,-1.69619 0.26819,-0.0894 0.61287,0.15681 0.84809,0 0.6653,-0.44353 1.05651,-1.21643 1.69618,-1.69618 0.50571,-0.37928 1.17022,-0.49745 1.69619,-0.84809 0.33265,-0.22177 0.51544,-0.62633 0.84809,-0.84809 0.52596,-0.35065 1.09649,-0.6482 1.69618,-0.8481 0.26819,-0.0894 0.61288,0.15682 0.8481,0 0.66529,-0.44353 1.03088,-1.25265 1.69618,-1.69618 0.23522,-0.15681 0.59524,0.12643 0.84809,0 3.88138,-1.94069 -3.59881,0.35151 2.54428,-1.69618 0.26819,-0.0894 0.56539,0 0.84809,0 0.56539,-0.2827 1.09649,-0.6482 1.69618,-0.8481 0.53638,-0.17879 1.19048,0.25286 1.69619,0 0.35758,-0.17879 0.51544,-0.62632 0.84809,-0.84809 0.52596,-0.35064 1.17022,-0.49745 1.69618,-0.84809 0.33265,-0.22177 0.49051,-0.6693 0.84809,-0.84809 0.25285,-0.12643 0.59524,0.12642 0.84809,0 0.35759,-0.17879 0.49051,-0.6693 0.8481,-0.84809 0.25285,-0.12643 0.56539,0 0.84809,0 0.56539,0 1.1598,0.17879 1.69618,0 0.75856,-0.25286 0.98101,-1.3386 1.69619,-1.69619 0.25285,-0.12642 0.56539,0 0.84809,0 0.56539,0 1.1598,0.1788 1.69618,0 0.37928,-0.12642 0.51544,-0.62632 0.84809,-0.84809 0.4271,-1.86848 1.74469,-0.4483 2.54428,-0.84809 0.71517,-0.35759 0.98101,-1.3386 1.69618,-1.69618 0.44767,-0.22384 2.17496,0.2462 2.54428,0 0.56539,-0.5654 1.13079,-1.13079 1.69618,-1.69619 0.2827,0 0.59524,0.12643 0.84809,0 0.35759,-0.17879 0.49051,-0.6693 0.8481,-0.84809 0.25285,-0.12643 0.5799,0.0894 0.84809,0 0.59969,-0.1999 1.08292,-0.69478 1.69618,-0.84809 0.54851,-0.13713 1.1598,0.17879 1.69618,0 0.37928,-0.12643 0.46882,-0.72167 0.8481,-0.84809 0.53638,-0.1788 1.19048,0.25285 1.69618,0 0.25285,-0.12643 -0.1999,-0.6482 0,-0.8481 0.39979,-0.39979 1.29639,0.3998 1.69618,0 0.1999,-0.19989 -0.19989,-0.64819 0,-0.84809 0.3998,-0.39979 1.19048,0.25286 1.69619,0 0.35758,-0.17879 0.4905,-0.6693 0.84809,-0.84809 0.25285,-0.12642 0.56539,0 0.84809,0 0.5654,-0.2827 1.17022,-0.49745 1.69618,-0.84809 0.33265,-0.22177 0.49051,-0.6693 0.8481,-0.84809 0.25285,-0.12643 0.56539,0 0.84809,0 0.56539,0 1.13079,0 1.69618,0"
       style="fill:none;fill-rule:evenodd;stroke:#000000;stroke-width:1px;stroke-linecap:butt;stroke-linejoin:miter;stroke-opacity:1" />
    <path
       id="path4515"
       d="m 203.54204,395.93912 c 1.41349,0.2827 2.87295,0.39226 4.24046,0.84809 0.75856,0.25286 0.98101,1.3386 1.69618,1.69619 0.25286,0.12642 0.57991,-0.0894 0.8481,0 0.59969,0.19989 1.09649,0.64819 1.69618,0.84809 0.53638,0.17879 1.29639,-0.3998 1.69618,0 0.1999,0.1999 -0.19989,0.64819 0,0.84809 0.1999,0.1999 0.5799,-0.0894 0.8481,0 0.59969,0.1999 1.09649,0.6482 1.69618,0.84809 0.53638,0.1788 1.1598,-0.17879 1.69618,0 0.59969,0.1999 1.09649,0.6482 1.69619,0.84809 0.26819,0.0894 0.56539,0 0.84809,0 0.67674,0 3.73165,-0.1696 4.24046,0 0.56539,0.2827 1.13079,0.5654 1.69618,0.8481 0,0.28269 -0.25285,0.72166 0,0.84809 0.24815,0.12407 4.39439,0 5.08855,0 0.2827,0 0.5654,0 0.84809,0 0.2827,0 0.6482,-0.1999 0.8481,0 0.19989,0.1999 -0.1999,0.64819 0,0.84809 0.39979,0.39979 1.1598,-0.17879 1.69618,0 0.59969,0.1999 1.09649,0.64819 1.69618,0.84809 0.58335,0.19445 2.04389,-0.25019 2.54428,0 0.35759,0.1788 0.4905,0.6693 0.84809,0.84809 0.25285,0.12643 0.59524,-0.12642 0.84809,0 0.35759,0.1788 0.49051,0.6693 0.84809,0.8481 0.4497,0.22484 3.66351,-0.19232 4.24046,0 0.37928,0.12642 0.49051,0.66929 0.84809,0.84809 0.25286,0.12642 0.6482,-0.1999 0.8481,0 0.19989,0.19989 -0.25286,0.72166 0,0.84809 0.5057,0.25285 1.1598,-0.17879 1.69618,0 0.37928,0.12643 0.49051,0.6693 0.84809,0.84809 0.25285,0.12643 0.59524,-0.12642 0.84809,0 0.35759,0.17879 0.49051,0.6693 0.8481,0.84809 0.25285,0.12643 0.5799,-0.0894 0.84809,0 1.19938,0.3998 2.19298,1.29639 3.39237,1.69619 0.26819,0.0894 0.5799,-0.0894 0.84809,0 0.59969,0.19989 1.09649,0.64819 1.69618,0.84809 0.26819,0.0894 0.59524,-0.12643 0.84809,0 2.81277,2.81277 -0.79959,-0.3998 1.69619,0.84809 0.35758,0.17879 0.4905,0.6693 0.84809,0.84809 0.5057,0.25285 1.1598,-0.17879 1.69618,0 0.59969,0.1999 1.09649,0.6482 1.69619,0.84809 0.26819,0.0894 0.64819,-0.19989 0.84809,0 0.19989,0.1999 -0.1999,0.6482 0,0.8481 0.13161,0.13161 2.21426,-0.11001 2.54427,0 0.59969,0.19989 1.08293,0.69477 1.69619,0.84809 0.54851,0.13713 1.19048,-0.25285 1.69618,0 0.25285,0.12642 -0.1999,0.64819 0,0.84809 8.1e-4,8.1e-4 2.54043,-10e-4 2.54428,0 0.37927,0.12643 0.4905,0.6693 0.84809,0.84809 0.52573,0.26287 3.71994,-0.26025 4.24046,0 0.25285,0.12643 -0.1999,0.6482 0,0.84809 0.18132,0.18132 2.92479,-0.15586 3.39236,0 0.5997,0.1999 1.0965,0.6482 1.69619,0.8481 0.26819,0.0894 0.59524,-0.12643 0.84809,0 0.35759,0.17879 0.4905,0.66929 0.84809,0.84809 0.55094,0.27547 3.7025,-0.26898 4.24046,0 0.35759,0.17879 0.49051,0.6693 0.84809,0.84809 0.50571,0.25285 1.19048,-0.25285 1.69619,0 0.35758,0.17879 0.4905,0.6693 0.84809,0.84809 0.5057,0.25285 1.1598,-0.17879 1.69618,0 0.59969,0.1999 1.09649,0.6482 1.69619,0.84809 0.53638,0.1788 1.19047,-0.25285 1.69618,0 0.35759,0.1788 0.46881,0.72167 0.84809,0.84809 0.53638,0.1788 1.13079,0 1.69618,0 0.2827,0 0.8481,-0.28269 0.8481,0 0,0.2827 -1.04799,-0.19989 -0.8481,0 0.97452,0.97452 1.49988,0.8481 2.54428,0.8481"
       style="fill:none;fill-rule:evenodd;stroke:#000000;stroke-width:1px;stroke-linecap:butt;stroke-linejoin:miter;stroke-opacity:1" />
    <path
       id="path4533"
       d="m 374.85659,401.02767 c 0.61448,-0.37272 -0.37052,-5.67317 0,-6.78473 0.12643,-0.37928 0.6693,-0.49051 0.84809,-0.84809 0.25286,-0.50571 -0.17879,-1.15981 0,-1.69619 2.0477,-6.14308 -0.2445,1.33711 1.69619,-2.54427 0.12642,-0.25285 -0.12643,-0.59524 0,-0.84809 0.17879,-0.35759 0.6693,-0.49051 0.84809,-0.8481 0.12643,-0.25285 -0.15681,-0.61287 0,-0.84809 0.6653,-0.99795 1.69618,-1.69618 2.54428,-2.54427 0.44649,-0.44649 2.09132,-2.3178 2.54427,-2.54428 0.25285,-0.12643 0.6482,0.1999 0.84809,0 0.1999,-0.1999 -0.19989,-0.64819 0,-0.84809 0.1999,-0.1999 0.59524,0.12642 0.84809,0 0.71518,-0.35759 0.98101,-1.3386 1.69619,-1.69618 0.25285,-0.12643 0.59524,0.12642 0.84809,0 0.35759,-0.1788 0.49051,-0.6693 0.84809,-0.8481 0.25285,-0.12642 0.6482,0.1999 0.84809,0 0.1999,-0.19989 -0.25285,-0.72166 0,-0.84809 0.75856,-0.37928 1.69619,0 2.54428,0 2.82697,0 5.65394,0 8.48092,0 1.69618,0 3.39237,0 5.08855,0 0.56539,0 1.13079,0 1.69618,0 0.5654,0 1.15981,-0.17879 1.69619,0 0.37927,0.12643 0.4905,0.6693 0.84809,0.84809 0.25285,0.12643 0.59524,-0.12642 0.84809,0 0.35759,0.1788 0.4905,0.6693 0.84809,0.8481 0.25285,0.12642 0.6482,-0.1999 0.84809,0 2.38801,0.0526 0.21596,1.91214 0.8481,2.54427 1.75473,1.75473 -0.0686,-2.68146 1.69618,0.84809 0.12643,0.25285 0,0.5654 0,0.84809 0.2827,0.5654 0.49745,1.17022 0.84809,1.69619 0.22177,0.33265 0.72167,0.46881 0.84809,0.84809 0.1788,0.53638 0,1.13079 0,1.69618 0,0.2827 -0.12642,0.59524 0,0.8481 0.1788,0.35758 0.6693,0.4905 0.84809,0.84809 0.33924,0.67847 -0.33923,1.8658 0,2.54427 0.1788,0.35759 0.6693,0.49051 0.8481,0.84809 0.23004,0.46008 -0.23206,3.16032 0,3.39237 0.19989,0.1999 0.64819,-0.1999 0.84809,0 0.1999,0.1999 0,0.5654 0,0.84809 0,1.41349 0,2.82698 0,4.24046 0,0.5654 0,1.13079 0,1.69619 0,0.28269 0.2827,0.84809 0,0.84809 -0.2827,0 0,-0.5654 0,-0.84809"
       style="fill:none;fill-rule:evenodd;stroke:#000000;stroke-width:1px;stroke-linecap:butt;stroke-linejoin:miter;stroke-opacity:1" />
    <path
       id="path4553"
       d="m 440.15966,401.87576 c 0,-3.39236 0,-6.78473 0,-10.1771 0,-0.56539 -0.17879,-1.1598 0,-1.69618 0.25286,-0.75856 1.25266,-1.03089 1.69619,-1.69618 0.70128,-1.05193 0.9949,-2.34044 1.69618,-3.39237 0.44353,-0.6653 1.25265,-1.03089 1.69619,-1.69619 0.35064,-0.52596 0.4011,-1.2492 0.84809,-1.69618 0.19989,-0.1999 0.64819,0.1999 0.84809,0 0.1999,-0.1999 -0.1999,-0.64819 0,-0.84809 0.1999,-0.1999 0.59524,0.12642 0.84809,0 0.35759,-0.17879 0.46881,-0.72167 0.84809,-0.84809 0.53638,-0.1788 1.13079,0 1.69619,0 0.28269,0 0.59524,0.12642 0.84809,0 0.35758,-0.1788 0.4905,-0.6693 0.84809,-0.84809 0.25285,-0.12643 0.56539,0 0.84809,0 0.5654,0 1.1598,0.17879 1.69619,0 0.37927,-0.12643 0.4905,-0.6693 0.84809,-0.8481 0.5057,-0.25285 1.19048,0.25286 1.69618,0 0.35759,-0.17879 0.49051,-0.6693 0.84809,-0.84809 0.25285,-0.12642 0.5654,0 0.84809,0 0.2827,0 0.5654,0 0.8481,0 1.69618,0 3.39236,0 5.08855,0 2.26158,0 4.52315,0 6.78473,0 0.44349,0 3.16937,-0.1115 3.39237,0 0.35759,0.17879 0.4905,0.6693 0.84809,0.84809 0.25285,0.12643 0.6482,-0.19989 0.84809,0 0.56471,0.56471 -0.5647,1.13148 0,1.69619 0.3998,0.39979 1.19048,-0.25286 1.69619,0 1.01771,0.50885 1.52656,2.03542 2.54427,2.54427 2.13634,1.06817 -0.73393,-3.22113 2.54428,1.69619 0.31362,0.47043 -0.25285,1.19048 0,1.69618 0.17879,0.35759 0.6693,0.4905 0.84809,0.84809 0.25285,0.50571 -0.25285,1.19048 0,1.69619 0.17879,0.35758 0.6693,0.4905 0.84809,0.84809 0.15335,0.3067 0,3.65057 0,4.24046 0,2.82697 0,5.65394 0,8.48091"
       style="fill:none;fill-rule:evenodd;stroke:#000000;stroke-width:1px;stroke-linecap:butt;stroke-linejoin:miter;stroke-opacity:1" />
    <path
       id="path4555"
       d="m 411.32454,501.9506 c -2.06966,1.14991 -3.48956,2.64148 -5.08855,4.24046 -0.2827,0.2827 -0.6693,0.49051 -0.84809,0.84809 -0.12643,0.25285 0,0.5654 0,0.84809 -0.2827,0.5654 -0.49745,1.17022 -0.84809,1.69619 -0.51469,0.77203 -2.16843,1.79258 -2.54428,2.54427 -0.12642,0.25286 0.12643,0.59524 0,0.8481 -0.17879,0.35758 -0.72166,0.46881 -0.84809,0.84809 -0.17879,0.53638 0.25285,1.19048 0,1.69618 -0.12643,0.25285 -0.59524,-0.12643 -0.84809,0 -1.87518,0.93759 -0.26318,0.52636 -0.84809,1.69618 -0.64946,1.29892 -1.51132,0.66323 -2.54428,1.69619 -0.1999,0.1999 0.1999,0.64819 0,0.84809 -0.1999,0.1999 -0.64819,-0.1999 -0.84809,0 -0.1999,0.1999 0.0894,0.5799 0,0.84809 -0.1999,0.59969 -0.49745,1.17022 -0.84809,1.69619 -1.29892,1.94837 -0.48443,-0.36367 -2.54428,1.69618 -0.1999,0.1999 0.1999,0.64819 0,0.84809 -0.1999,0.1999 -0.64819,-0.1999 -0.84809,0 -0.1999,0.1999 0.2827,0.84809 0,0.84809 -0.2827,0 -0.2827,-0.84809 0,-0.84809 0.39979,0 0.46881,0.72167 0.84809,0.84809 0.53638,0.1788 1.13079,0 1.69618,0 0.5654,0 1.13079,0 1.69619,0 1.69618,0 3.39237,0 5.08855,0 7.35013,0 14.70026,0 22.05039,0 2.72996,0 -1.44779,-0.19989 1.69618,0.84809 0.80457,0.2682 1.69618,0 2.54428,0 1.69618,0 3.39236,0 5.08855,0 5.08855,0 10.1771,0 15.26565,0 1.97888,0 3.95776,0 5.93664,0 0.38195,0 2.28618,0.12906 2.54428,0 0.35759,-0.17879 0.46881,-0.72166 0.84809,-0.84809 0.66303,-0.22101 4.62185,0.23336 5.08855,0 2.09598,-1.04799 -0.29274,-0.84809 1.69619,-0.84809 4.52315,0 9.04631,0 13.56946,0 1.03525,0 1.95569,0.3291 2.54428,-0.84809 0.4624,-0.9248 -0.45404,-1.1051 -0.84809,-1.69618 -0.70129,-1.05193 -1.13079,-2.26158 -1.69619,-3.39237 -1.20567,-2.41136 -0.4011,-1.2492 -2.54427,-3.39237 -0.2827,-0.2827 -0.5654,-0.56539 -0.84809,-0.84809 -0.2827,-0.2827 -0.6693,-0.49051 -0.84809,-0.84809 -0.25286,-0.50571 0.39979,-1.29639 0,-1.69619 -0.1999,-0.19989 -0.6482,0.1999 -0.8481,0 -0.19989,-0.19989 0.1999,-0.64819 0,-0.84809 -0.19989,-0.1999 -0.64819,0.1999 -0.84809,0 -0.1999,-0.1999 0.1999,-0.64819 0,-0.84809 -0.1999,-0.1999 -0.64819,0.1999 -0.84809,0 -0.1999,-0.1999 0.12643,-0.59524 0,-0.84809 -0.17879,-0.35759 -0.6693,-0.49051 -0.84809,-0.84809 -0.12643,-0.25286 0.12642,-0.59524 0,-0.8481 -1.76478,-3.52955 0.0586,0.90664 -1.69619,-0.84809 -0.19989,-0.19989 0.0894,-0.5799 0,-0.84809 -0.19989,-0.59969 -0.4011,-1.2492 -0.84809,-1.69618 -0.19989,-0.1999 -0.64819,0.19989 -0.84809,0 -0.1999,-0.1999 0.12643,-0.59524 0,-0.84809 -0.17879,-0.35759 -0.6693,-0.49051 -0.84809,-0.8481 -0.12643,-0.25285 -0.2827,-0.84809 0,-0.84809 0.2827,0 0.2827,0.84809 0,0.84809 -1.04799,0 -0.84809,-1.18933 -0.84809,-1.69618"
       style="fill:none;fill-rule:evenodd;stroke:#000000;stroke-width:1px;stroke-linecap:butt;stroke-linejoin:miter;stroke-opacity:1" />
  </g>
</svg>
